<?xml version="1.0" encoding="UTF-8" standalone="no"?>
<!-- Generator: Adobe Illustrator 17.1.0, SVG Export Plug-In . SVG Version: 6.00 Build 0)  -->

<svg
   xmlns:dc="http://purl.org/dc/elements/1.1/"
   xmlns:cc="http://creativecommons.org/ns#"
   xmlns:rdf="http://www.w3.org/1999/02/22-rdf-syntax-ns#"
   xmlns:svg="http://www.w3.org/2000/svg"
   xmlns="http://www.w3.org/2000/svg"
   xmlns:sodipodi="http://sodipodi.sourceforge.net/DTD/sodipodi-0.dtd"
   xmlns:inkscape="http://www.inkscape.org/namespaces/inkscape"
   version="1.1"
   x="0px"
   y="0px"
   viewBox="0 0 710.3 153"
   enable-background="new 0 0 710.3 153"
   xml:space="preserve"
   id="svg45"
   sodipodi:docname="logo.svg"
   inkscape:version="0.92.2 (5c3e80d, 2017-08-06)"><metadata
     id="metadata51"><rdf:RDF><cc:Work
         rdf:about=""><dc:format>image/svg+xml</dc:format><dc:type
           rdf:resource="http://purl.org/dc/dcmitype/StillImage" /></cc:Work></rdf:RDF></metadata><defs
     id="defs49" /><sodipodi:namedview
     pagecolor="#ffffff"
     bordercolor="#666666"
     borderopacity="1"
     objecttolerance="10"
     gridtolerance="10"
     guidetolerance="10"
     inkscape:pageopacity="0"
     inkscape:pageshadow="2"
     inkscape:window-width="1920"
     inkscape:window-height="974"
     id="namedview47"
     showgrid="false"
     inkscape:zoom="2.8192328"
     inkscape:cx="354.79529"
     inkscape:cy="67.381745"
     inkscape:window-x="0"
     inkscape:window-y="27"
     inkscape:window-maximized="1"
     inkscape:current-layer="svg45" /><g
     id="Layer_1"
     display="none" /><g
     id="Layer_2"
     display="none"><rect
       x="5.3"
       display="inline"
       fill="#272A33"
       width="705"
       height="153"
       id="rect3" /></g><g
     id="Layer_4"><g
       id="g8"><path
         fill="#737373"
         d="M0,35.1c2.6-2.2,5-4.5,7.8-6.5c0.8-0.5,2.8-0.6,3.8-0.2c8.3,3.4,17.2,4.7,26.5,4.7c1,0,1.9-0.4,2.9-0.6    c0.5-0.1,1-0.4,1.4-0.3c8.5,1.4,16.8,0.5,25.2-0.7c1.3-0.2,2.7,0.6,4.1,0.5c7.7-0.2,16,0.4,23.6,0.1c0.7,0,1.3-0.4,2-0.5    c1-0.2,1.3-1.3,3-1.7c1.7-10.7,1.9-12.5,0.3-24.3c1.6-0.3,3.3-2.1,5.1-2.2c3.2-0.1,2.6,1.1,2.4,3.6c-0.5,8.5-0.5,8.5-0.8,17    c-0.1,1.7,0.2,1.4,0.7,3.3c1.2,0,3,0.8,4.1,0.8c99.2,0.5,198.2,2.2,297.5,2.7c56.9,0.3,113.6,2.6,170.5,3    c13,0.1,25.8,0.4,38.1,3.6c0.7,0.2,1.3,0.5,2,0.7c0.4,0.1,0.7,0.3,2,1c-5.6,1.3-10.3,2.6-15.2,3.6c-11.3,2.3-22.9,3.1-34.6,3.1    c-73,0.2-146,0.7-219.1,1c-35.4,0.2-70.7,0.3-106.1,0.5c-45.5,0.3-90.9,0.6-136.4,0.8c-0.7,0-1.4,0.1-2.1,0.1    c-2.2,5.3-2.3,2.5,0,22.5c-1.1,0.5-2.2,1.1-3.4,1.6c-0.8,0-1.7,0-2.5,0c-1.2-0.6-2.4-1.2-3.4-1.7c1.6-11.5,2.6-12.4,0.8-23.7    c-1,0.1-2.5-0.8-3.4-1c-1.8-0.2-3,0.4-4.8,0.2C83,45.4,74,45.6,65,45c-4.5-0.3-9-0.2-13.5-0.6c-4.4-0.4-8.7,0-13.1-0.2    c-9.2-0.4-18.1,1.1-26.4,4.5c-1.1,0.5-3.3,0.5-4.1-0.1c-2.8-2-5.2-4.3-7.7-6.5C0,39.7,0,37.4,0,35.1z"
         id="path6"
         style="fill:#333743;fill-opacity:1" /></g></g><g
     id="Layer_4_copy"><g
       id="g13"
       style="fill:#333743;fill-opacity:1"><path
         fill="#737373"
         d="M698.4,121c-2.6,2.1-5,4.3-7.8,6.2c-0.8,0.5-2.8,0.6-3.8,0.2c-8.3-3.2-17.2-4.5-26.5-4.5    c-1,0-1.9,0.4-2.9,0.6c-0.5,0.1-1,0.3-1.4,0.3c-8.5-1.4-16.8-0.5-25.2,0.7c-1.3,0.2-2.7-0.5-4.1-0.5c-7.7,0.2-15-0.3-22.6,0    c-0.7,0-2.2,0.4-2.9,0.5c-1,0.2-1.4,1.2-3.1,1.5c-1.7,10.3-0.4,9.1,1.1,20.5c-1.6,0.3-3.3,0.9-5.1,1c-3.2,0.1-4.2-1-4-3.4    c0.5-8.2,0.7-4.2,1-12.3c0.1-1.6-0.6-2.2-1-4.1c-1.2,0-2.4,0-3.5,0c-99.2-0.5-198.5-1.9-297.7-2.4c-56.9-0.3-113.8-0.6-170.8-0.9    c-13-0.1-25.6-2.4-37.9-5.4c-0.7-0.2-1.3-0.4-2-0.7c-0.4-0.1-0.7-0.3-2-0.9c5.6-1.3,10.3-2.5,15.2-3.4c11.3-2.2,22.9-2.9,34.6-3    c73-0.2,146-0.7,219.1-1c35.4-0.2,70.7-0.3,106.1-0.5c45.5-0.2,90.8-2,136.3-2.3c0.6,0,1.2-0.1,2.1-0.1c2.2-5.1,2.7-0.9,0.4-20.1    c1.1-0.5,2.2-1,3.4-1.6c0.8,0,1.7,0,2.5,0c1.2,0.6,2.4,1.1,3.4,1.6c-1.6,11.1-2.9,11.9-1.2,22.7c1-0.1,2.1,1.1,3,1.2    c1.8,0.2,3,0.2,4.8,0.4c9,0.7,18.5-0.4,27.5,0.1c4.5,0.3,9,0.2,13.5,0.6c4.4,0.4,9.3,1.5,13.7,1.7c9.2,0.4,17.5-2.5,25.8-5.8    c1.1-0.4,3.3-0.4,4.1,0.1c2.8,1.9,5.2,4.2,7.7,6.3C698.4,116.5,698.4,118.7,698.4,121z"
         id="path11"
         style="fill:#333743;fill-opacity:1" /></g></g><g
     id="Layer_3"
     transform="translate(0,-2)"><g
       id="g42"><rect
         x="113.3"
         y="38.700001"
         width="488.79999"
         height="66.900002"
         id="rect16"
         style="fill:none" /><path
         d="m 128.5,70.9 v 17.2 c 0,1.3 0,2.5 0,3.6 0,1.1 0,2.1 0.1,3 0,0.6 0.3,0.9 0.8,1.2 l 3.7,1.1 0.1,1.4 c -2.6,-0.1 -5.2,-0.1 -7.8,-0.1 -2.6,0 -5.4,0 -8.2,0.1 L 117,97 l 4.1,-1.2 c 0.6,-0.2 0.9,-0.5 0.9,-1.1 0,-0.9 0,-1.9 0.1,-3 0,-1.1 0,-2.3 0,-3.6 V 71 c 0,-1.1 0,-2.1 0,-3 0,-0.9 0,-1.7 -0.1,-2.5 0,-0.6 -0.3,-1 -0.8,-1.1 l -4.1,-1.3 -0.1,-1.4 c 2.9,0.1 5.6,0.1 8.2,0.1 2.6,0 5.2,0 7.9,-0.1 l 0.1,1.4 -3.8,1.2 c -0.5,0.1 -0.8,0.4 -0.8,1 0,0.8 0,1.7 -0.1,2.6 0,0.9 0,1.9 0,3 z m 0.9,9 9.2,-10.2 c 1,-1.2 1.9,-2.2 2.5,-3 0.6,-0.8 1,-1.4 1,-1.9 0,-0.4 -0.3,-0.7 -0.9,-0.9 l -2.7,-0.7 -0.1,-1.5 c 2.2,0.1 4.5,0.1 7.1,0.1 2.7,0 5.2,0 7.5,-0.1 l 0.1,1.4 -3.4,1.1 c -1,0.3 -1.9,0.8 -2.7,1.5 -0.8,0.7 -1.6,1.5 -2.4,2.4 l -9,9.7 11.4,15 c 0.7,0.8 1.3,1.5 1.9,2 0.6,0.5 1.4,0.9 2.5,1.2 l 3,0.9 0.1,1.4 c -1.9,-0.1 -4.3,-0.1 -7.1,-0.1 -0.8,0 -1.5,0 -2.3,0 -0.8,0 -1.5,0 -2.3,0.1 -0.4,-0.8 -1.1,-1.9 -2.1,-3.4 -1,-1.5 -2.4,-3.4 -4.1,-5.6 z"
         id="path18"
         inkscape:connector-curvature="0"
         style="fill:#ffffff" /><path
         d="m 163.9,94.7 c 0,0.4 0.1,0.7 0.3,0.9 0.2,0.2 0.5,0.4 0.9,0.5 l 3.1,0.9 0.1,1.5 c -3.2,-0.1 -5.6,-0.1 -7.3,-0.1 -2,0 -4.3,0 -6.8,0.1 l -0.2,-1.4 3.4,-1 c 0.8,-0.3 1.5,-0.7 1.9,-1.2 0.4,-0.5 0.8,-1.4 1.3,-2.6 l 13.2,-30.6 3.1,-0.5 11.4,30.6 c 0.6,1.5 1.1,2.6 1.5,3.1 0.4,0.5 1.1,0.9 2,1.2 l 3.2,0.9 0.1,1.4 c -2.9,-0.1 -5.6,-0.1 -8.1,-0.1 -2.6,0 -5.5,0 -9,0.1 L 177.9,97 181,96 c 0.4,-0.1 0.8,-0.3 1,-0.5 0.2,-0.2 0.3,-0.5 0.3,-0.9 0,-0.4 -0.1,-1 -0.4,-1.8 -0.2,-0.7 -0.6,-1.7 -1,-2.8 l -1.6,-4.3 h -12.2 l -1.7,4.3 c -0.5,1.2 -0.9,2.2 -1.1,3 -0.3,0.7 -0.4,1.3 -0.4,1.7 z m 9.7,-25 -5.2,13 h 9.9 z"
         id="path20"
         inkscape:connector-curvature="0"
         style="fill:#ffffff" /><path
         d="m 225.3,72.9 -1.3,0.2 -2.3,-8.4 c -2.2,-0.7 -4.2,-1.1 -6.1,-1.1 -4.4,0 -7.8,1.4 -10.3,4.3 -2.5,2.9 -3.7,6.8 -3.7,11.9 0,5.1 1.3,9.2 4,12.2 2.7,3 6.3,4.5 10.8,4.5 1.5,0 3,-0.2 4.5,-0.7 v -4.3 c 0,-1.1 0,-2.1 0,-3 0,-0.9 0,-1.7 0,-2.5 0,-0.6 -0.3,-1 -0.8,-1.1 l -4.1,-1.3 -0.1,-1.4 c 2.9,0 5.6,0.1 8.3,0.1 2.6,0 5.2,0 7.7,-0.1 l 0.1,1.4 -3.6,1.1 c -0.5,0.1 -0.8,0.5 -0.9,1 0,0.9 0,1.8 -0.1,2.7 0,0.9 0,1.9 0,3 v 6.1 l -0.2,0.2 c -3.9,1.1 -7.5,1.6 -10.8,1.6 -6.7,0 -12.1,-1.6 -16.1,-4.9 -4,-3.3 -6,-7.8 -6,-13.7 0,-6.2 2.1,-11 6.2,-14.6 4.1,-3.5 9.8,-5.3 16.9,-5.3 3.1,0 6.3,0.5 9.7,1.4 l 0.2,0.2 z"
         id="path22"
         inkscape:connector-curvature="0"
         style="fill:#ffffff" /><path
         d="m 250.7,65.4 -0.2,-1.7 c 5.3,-0.8 10.6,-1.7 15.9,-2.6 l 0.4,0.3 c -0.3,4.6 -0.5,9.4 -0.5,14.3 v 9.7 c 0,3.5 0,6.3 0.1,8.4 0,0.8 0.4,1.2 1.1,1.4 l 6.3,1.6 0.1,1.6 c -4.9,-0.1 -8.6,-0.1 -11.2,-0.1 -2.6,0 -6.3,0 -11.2,0.1 l -0.2,-1.6 6.4,-1.6 c 0.7,-0.2 1,-0.6 1.1,-1.3 0.1,-2.1 0.1,-4.5 0.1,-7.1 v -6.6 c 0,-5.3 -0.1,-10 -0.2,-14.1 z"
         id="path24"
         inkscape:connector-curvature="0"
         style="fill:#ffffff" /><path
         d="M 289.4,98.6 277.6,68.3 c -0.6,-1.5 -1.1,-2.5 -1.5,-3.1 -0.5,-0.6 -1.2,-1 -2.1,-1.3 l -3.1,-0.9 -0.1,-1.4 c 2.2,0.1 4.7,0.1 7.7,0.1 3,0 6.1,0 9.3,-0.1 l 0.1,1.4 -3.1,0.8 c -0.4,0.1 -0.8,0.3 -1,0.5 -0.2,0.2 -0.3,0.5 -0.3,0.9 0,0.4 0.1,1 0.4,1.8 0.2,0.8 0.6,1.7 1.1,2.9 l 7.9,20 8.4,-20 c 0.5,-1.2 0.9,-2.2 1.2,-3 0.3,-0.8 0.4,-1.3 0.4,-1.8 0,-0.4 -0.1,-0.7 -0.3,-0.8 -0.2,-0.2 -0.5,-0.3 -0.9,-0.5 l -3.2,-0.9 -0.1,-1.5 c 2.4,0.1 4.9,0.1 7.3,0.1 2.4,0 4.8,0 7.1,-0.1 l 0.1,1.4 -3.5,1.1 c -0.8,0.2 -1.4,0.6 -1.8,1.1 -0.4,0.5 -1,1.5 -1.7,3.1 l -13.2,30 z"
         id="path26"
         inkscape:connector-curvature="0"
         style="fill:#ffffff" /><path
         d="M 315.2,65.4 315,63.7 c 5.3,-0.8 10.6,-1.7 15.9,-2.6 l 0.4,0.3 c -0.3,4.6 -0.5,9.4 -0.5,14.3 v 9.7 c 0,3.5 0,6.3 0.1,8.4 0,0.8 0.4,1.2 1.1,1.4 l 6.3,1.6 0.1,1.6 c -4.9,-0.1 -8.6,-0.1 -11.2,-0.1 -2.6,0 -6.3,0 -11.2,0.1 l -0.2,-1.6 6.4,-1.6 c 0.7,-0.2 1,-0.6 1.1,-1.3 0.1,-2.1 0.1,-4.5 0.1,-7.1 v -6.6 c 0,-5.3 -0.1,-10 -0.2,-14.1 z"
         id="path28"
         inkscape:connector-curvature="0"
         style="fill:#ffffff" /><path
         d="m 369.2,61.8 c 2.3,0 5,0 8.1,-0.1 l 0.1,1.4 -4,1.2 c -0.6,0.2 -0.9,0.5 -0.9,1.1 0,0.9 -0.1,2.5 -0.1,4.6 v 18.1 c 0,2.4 0,4.9 0,7.2 h 13.1 l 4.2,-8.6 1.5,-0.2 -0.7,11.7 -0.3,0.2 c -5,-0.1 -9.5,-0.1 -13.7,-0.1 h -7.2 c -2.3,0 -5,0 -8.1,0.1 l -0.1,-1.4 4,-1.2 c 0.5,-0.2 0.8,-0.6 0.9,-1.1 0,-0.9 0.1,-2.4 0.1,-4.6 V 71.3 c 0,-2.8 0,-4.7 -0.1,-5.8 0,-0.7 -0.3,-1.1 -0.9,-1.2 l -4,-1.2 -0.1,-1.4 c 3.2,0.1 5.9,0.1 8.2,0.1 z"
         id="path30"
         inkscape:connector-curvature="0"
         style="fill:#ffffff" /><path
         d="m 400.1,94.7 c 0,0.4 0.1,0.7 0.3,0.9 0.2,0.2 0.5,0.4 0.9,0.5 l 3.1,0.9 0.1,1.5 c -3.2,-0.1 -5.6,-0.1 -7.3,-0.1 -2,0 -4.3,0 -6.8,0.1 l -0.2,-1.4 3.4,-1 c 0.8,-0.3 1.5,-0.7 1.9,-1.2 0.4,-0.5 0.8,-1.4 1.3,-2.6 l 13.2,-30.6 3.1,-0.5 11.4,30.6 c 0.6,1.5 1.1,2.6 1.5,3.1 0.4,0.5 1.1,0.9 2,1.2 l 3.2,0.9 0.1,1.4 c -2.9,-0.1 -5.6,-0.1 -8.1,-0.1 -2.6,0 -5.5,0 -9,0.1 l -0.1,-1.4 3.1,-0.9 c 0.4,-0.1 0.8,-0.3 1,-0.5 0.2,-0.2 0.3,-0.5 0.3,-0.9 0,-0.4 -0.1,-1 -0.4,-1.8 -0.2,-0.7 -0.6,-1.7 -1,-2.8 l -1.6,-4.3 h -12.2 l -1.7,4.3 c -0.5,1.2 -0.9,2.2 -1.1,3 -0.3,0.6 -0.4,1.2 -0.4,1.6 z m 9.7,-25 -5.2,13 h 9.9 z"
         id="path32"
         inkscape:connector-curvature="0"
         style="fill:#ffffff" /><path
         d="m 439.4,98.3 c -2.3,0 -5.1,0 -8.2,0.1 l -0.1,-1.4 4,-1.2 c 0.5,-0.2 0.8,-0.6 0.9,-1.1 0,-0.9 0.1,-2.4 0.1,-4.6 V 71.3 c 0,-2.8 0,-4.7 -0.1,-5.8 0,-0.7 -0.3,-1.1 -0.9,-1.2 l -4,-1.2 -0.1,-1.4 c 3.2,0.1 6,0.1 8.3,0.1 1.9,0 3.7,0 5.4,-0.1 1.8,-0.1 3.6,-0.1 5.4,-0.1 6.6,0 11.6,1.4 14.9,4.2 3.3,2.8 5,6.9 5,12.4 0,6.4 -1.8,11.4 -5.5,15 -3.7,3.6 -8.8,5.3 -15.5,5.3 -1.9,0 -3.5,0 -4.9,-0.1 -1.4,-0.1 -3,-0.1 -4.7,-0.1 z m 3,-2.9 c 1,0.1 2.1,0.2 3.1,0.3 1,0.1 2,0.1 3,0.1 4.6,0 8.1,-1.3 10.6,-3.9 2.4,-2.6 3.7,-6.6 3.7,-12 0,-5.2 -1.2,-9.1 -3.5,-11.6 -2.3,-2.5 -5.9,-3.8 -10.9,-3.8 -0.8,0 -1.6,0 -2.6,0 -1,0 -2.1,0.1 -3.3,0.2 v 30.7 z"
         id="path34"
         inkscape:connector-curvature="0"
         style="fill:#ffffff" /><path
         d="m 478.6,98.3 c -2.3,0 -5.1,0 -8.2,0.1 l -0.1,-1.4 4,-1.2 c 0.5,-0.2 0.8,-0.6 0.9,-1.1 0,-0.9 0.1,-2.4 0.1,-4.6 V 71.3 c 0,-2.8 0,-4.7 -0.1,-5.8 0,-0.7 -0.3,-1.1 -0.9,-1.2 l -4,-1.2 -0.1,-1.4 c 3.2,0.1 6,0.1 8.3,0.1 1.9,0 3.7,0 5.4,-0.1 1.8,-0.1 3.6,-0.1 5.4,-0.1 6.6,0 11.6,1.4 14.9,4.2 3.3,2.8 5,6.9 5,12.4 0,6.4 -1.8,11.4 -5.5,15 -3.7,3.6 -8.8,5.3 -15.5,5.3 -1.9,0 -3.5,0 -4.9,-0.1 -1.5,-0.1 -3,-0.1 -4.7,-0.1 z m 3,-2.9 c 1,0.1 2.1,0.2 3.1,0.3 1,0.1 2,0.1 3,0.1 4.6,0 8.1,-1.3 10.6,-3.9 2.4,-2.6 3.7,-6.6 3.7,-12 0,-5.2 -1.2,-9.1 -3.5,-11.6 -2.3,-2.5 -5.9,-3.8 -10.9,-3.8 -0.8,0 -1.6,0 -2.6,0 -1,0 -2.1,0.1 -3.3,0.2 v 30.7 z"
         id="path36"
         inkscape:connector-curvature="0"
         style="fill:#ffffff" /><path
         d="m 517,61.8 h 7.4 c 4.3,0 8.9,0 13.6,-0.1 l 0.3,0.2 -1.9,9.9 -1.4,0.2 -1.9,-7.3 h -12.8 v 13.5 h 1.8 c 1.7,0 3.5,0 5.6,0 0.6,0 1,-0.3 1.2,-0.9 l 0.9,-3.9 h 1.8 c 0,2.7 -0.1,4.8 -0.1,6.3 0,1.4 0,3.5 0.1,6.2 l -1.8,0.1 -1,-4 c -0.2,-0.6 -0.5,-0.9 -1.1,-0.9 -2.1,0 -4,0 -5.6,0 h -1.8 v 7.1 c 0,2.4 0,4.9 0.1,7.2 h 13 l 3.8,-8.1 1.5,-0.2 -0.7,11.1 -0.2,0.2 c -5,-0.1 -9.6,-0.1 -13.8,-0.1 h -6.8 c -2.3,0 -5,0 -8.1,0.1 L 509,97 l 4,-1.2 c 0.5,-0.2 0.8,-0.6 0.9,-1.1 0,-0.9 0.1,-2.4 0.1,-4.6 V 71.3 c 0,-2.8 0,-4.7 -0.1,-5.8 0,-0.7 -0.3,-1.1 -0.9,-1.2 l -4,-1.2 -0.1,-1.4 c 3.1,0.1 5.8,0.1 8.1,0.1 z"
         id="path38"
         inkscape:connector-curvature="0"
         style="fill:#ffffff" /><path
         d="m 552.7,88.1 c 0,1.3 0,2.5 0,3.6 0,1.1 0,2 0.1,2.9 0,0.7 0.3,1.1 0.9,1.3 l 3.7,1.1 0.1,1.4 c -2.6,-0.1 -5.3,-0.1 -7.8,-0.1 -2.6,0 -5.4,0 -8.2,0.1 l -0.1,-1.4 4.1,-1.2 c 0.6,-0.2 0.9,-0.5 0.9,-1.1 0,-0.9 0,-1.9 0.1,-3 0.1,-1.1 0,-2.3 0,-3.6 V 71 c 0,-1.1 0,-2.1 0,-3 0,-0.9 0,-1.7 -0.1,-2.5 0,-0.6 -0.3,-1 -0.8,-1.1 l -4.1,-1.3 -0.1,-1.4 c 2.9,0.1 5.7,0.1 8.4,0.1 0.5,0 1,0 1.8,-0.1 0.8,-0.1 1.6,-0.1 2.7,-0.1 1,0 1.9,-0.1 2.6,-0.1 0.7,0 1.3,0 1.7,0 4.5,0 7.8,0.8 10.1,2.3 2.2,1.5 3.3,3.8 3.3,6.7 0,2.6 -0.7,4.8 -2.1,6.3 -1.4,1.6 -3.5,2.8 -6.3,3.7 1.6,2.3 2.9,4.3 4.1,6.2 1.2,1.9 2.2,3.4 3.1,4.7 0.9,1.3 1.7,2.3 2.4,3 0.4,0.4 0.8,0.7 1.2,1 0.4,0.3 0.8,0.5 1.2,0.7 0.4,0.2 0.8,0.3 1.3,0.5 0.5,0.2 0.9,0.3 1.5,0.4 l 0.2,1.5 c -1.6,0.2 -2.9,0.3 -4,0.3 -0.9,0 -1.7,0 -2.4,-0.1 -0.7,-0.1 -1.3,-0.1 -1.9,-0.3 -0.6,-0.1 -1,-0.3 -1.5,-0.5 -0.5,-0.2 -0.9,-0.5 -1.3,-0.8 -0.9,-0.7 -1.8,-1.7 -2.7,-3 -0.9,-1.3 -1.9,-2.9 -2.9,-4.8 -1.1,-1.9 -2.1,-3.6 -3,-5 -0.3,-0.5 -0.6,-0.9 -0.9,-1.2 -0.3,-0.3 -0.5,-0.6 -0.8,-0.7 -0.3,-0.2 -0.6,-0.3 -1,-0.4 -0.4,-0.1 -0.9,-0.1 -1.5,-0.1 h -1.6 v 6.2 z m 0,-8.9 c 1,0.1 2,0.1 3,0.1 3.1,0 5.3,-0.6 6.7,-1.9 1.4,-1.2 2.1,-3.2 2.1,-5.8 0,-2.6 -0.7,-4.4 -2,-5.6 -1.3,-1.2 -3.5,-1.8 -6.4,-1.8 -0.5,0 -1,0 -1.6,0.1 -0.6,0 -1.2,0.1 -1.8,0.1 z"
         id="path40"
         inkscape:connector-curvature="0"
         style="fill:#ffffff" /></g></g></svg>