<?xml version="1.0" encoding="UTF-8" standalone="no"?>
<!-- Generator: Adobe Illustrator 17.1.0, SVG Export Plug-In . SVG Version: 6.00 Build 0)  -->

<svg
   xmlns:dc="http://purl.org/dc/elements/1.1/"
   xmlns:cc="http://creativecommons.org/ns#"
   xmlns:rdf="http://www.w3.org/1999/02/22-rdf-syntax-ns#"
   xmlns:svg="http://www.w3.org/2000/svg"
   xmlns="http://www.w3.org/2000/svg"
   xmlns:sodipodi="http://sodipodi.sourceforge.net/DTD/sodipodi-0.dtd"
   xmlns:inkscape="http://www.inkscape.org/namespaces/inkscape"
   version="1.1"
   x="0px"
   y="0px"
   viewBox="0 0 705 153"
   enable-background="new 0 0 705 153"
   xml:space="preserve"
   id="svg42"
   sodipodi:docname="logo.svg"
   inkscape:version="0.92.2 (5c3e80d, 2017-08-06)"><metadata
     id="metadata48"><rdf:RDF><cc:Work
         rdf:about=""><dc:format>image/svg+xml</dc:format><dc:type
           rdf:resource="http://purl.org/dc/dcmitype/StillImage" /></cc:Work></rdf:RDF></metadata><defs
     id="defs46" /><sodipodi:namedview
     pagecolor="#ffffff"
     bordercolor="#666666"
     borderopacity="1"
     objecttolerance="10"
     gridtolerance="10"
     guidetolerance="10"
     inkscape:pageopacity="0"
     inkscape:pageshadow="2"
     inkscape:window-width="1920"
     inkscape:window-height="974"
     id="namedview44"
     showgrid="false"
     inkscape:zoom="1.5285542"
     inkscape:cx="184.7824"
     inkscape:cy="91.540999"
     inkscape:window-x="0"
     inkscape:window-y="27"
     inkscape:window-maximized="1"
     inkscape:current-layer="svg42" /><g
     id="Layer_1"
     display="none" /><g
     id="Layer_2"
     display="none"><rect
       display="inline"
       fill="#272A33"
       width="705"
       height="153"
       id="rect3" /></g><g
     id="Layer_4"
     style="fill:#272a33;fill-opacity:1"><g
       id="g8"
       style="fill:#272a33;fill-opacity:1"><path
         fill="#373737"
         d="M64.3,34.7c2.2-2.2,4.3-4.5,6.7-6.5c0.7-0.5,2.4-0.6,3.3-0.2c7.1,3.4,14.8,4.7,22.7,4.7    c0.8,0,1.6-0.4,2.5-0.6c0.4-0.1,0.9-0.4,1.2-0.3c7.3,1.4,14.5,0.5,21.6-0.7c1.1-0.2,2.3,0.6,3.5,0.5c6.6-0.2,13.7,0.4,20.3,0.1    c0.6,0,1.1-0.4,1.7-0.5c0.8-0.2,1.1-1.3,2.6-1.7c1.5-10.7,1.6-12.5,0.2-24.3c1.4-0.3,2.8-2.1,4.4-2.2c2.8-0.1,2.2,1.1,2.1,3.6    c-0.4,8.5-0.4,8.5-0.7,17c-0.1,1.7,0.2,1.4,0.6,3.3c1.1,0,2.6,0.8,3.5,0.8c85.2,0.5,170.2,2.2,255.3,2.7    c48.9,0.3,97.5,2.6,146.4,3c11.2,0.1,22.1,0.4,32.7,3.6c0.6,0.2,1.2,0.5,1.7,0.7c0.3,0.1,0.6,0.3,1.7,1c-4.8,1.3-8.9,2.6-13,3.6    c-9.7,2.3-19.6,3.1-29.7,3.1c-62.7,0.2-125.4,0.7-188,1c-30.3,0.2-60.7,0.3-91,0.5c-39,0.3-78,0.6-117,0.8c-0.6,0-1.2,0.1-1.8,0.1    c-1.9,5.3-2,2.5,0,22.5c-0.9,0.5-1.9,1.1-2.9,1.6c-0.7,0-1.4,0-2.2,0c-1-0.6-2.1-1.2-2.9-1.7c1.4-11.5,2.2-12.4,0.7-23.7    c-0.9,0.1-2.1-0.8-2.9-1c-1.5-0.2-2.6,0.4-4.1,0.2c-7.7-0.7-15.5-0.4-23.2-1c-3.9-0.3-7.8-0.2-11.6-0.6c-3.8-0.4-7.5,0-11.3-0.2    c-7.9-0.4-15.6,1.1-22.7,4.5c-1,0.5-2.9,0.5-3.6-0.1c-2.4-2-4.5-4.3-6.6-6.5C64.3,39.4,64.3,37.1,64.3,34.7z"
         id="path6"
         style="fill:#272a33;fill-opacity:1" /></g></g><g
     id="Layer_6"
     display="none"><path
       display="inline"
       fill="#737373"
       d="M286,76c51.3-3.3,58.3-0.9,64.8-5.1c1.5-1,4.6-0.9,6,0.1c2.5,1.9,3,3.3,4.1-1.3   c0.7-3,4.5-2.1,7.2-0.3c8.1,5.5,8.3,5.6,14.9-2c3.2-3.6,6.8-1,10.1-1.9c0.7-0.2,1.4-0.6,2.1-1c-0.8-0.6-1.6-1.1-2.4-1.6   c-1.3-0.8-5.1,1.2-3.6-1.9c0.9-1.8-0.1-6.7,4.6-6.2c3.7,0.4,7.5,0.1,11.2,0.1c22,0,44-0.3,65.9,0.1c11.3,0.2,22.5,2,33.8,2.4   c11.2,0.4,22.4,0.1,33.6,0.2c0.7,0,1.3,1.6,2,2.5c-22.9,0-45.7,0-68.6,0c-3.5,0-7.3,1.3-10.3-2.5c-0.7-0.8-3.5-0.6-4.7,0.2   c-1,0.7-1.1,3-1.2,4.6c-0.3,4.1-1.5,2.3-3.4,0.9c-1.2-0.8-3.3-1-4.7-0.4c-1,0.4-2,3.4-1.8,3.7c1.7,1.6,4,4,5.8,3.8   c6.7-0.8,13.8,2.8,20.3-2.2c1-0.8,4.1,1.6,6.3,2.4c1.5,0.5,3,0.8,4.6,1.1c-1.3,0.5-2.6,1.5-3.9,1.5c-25.8,0.1-51.5,0.1-77.3,0   c-2.2,0-4.5-1.3-6.6-2.1c-3.3-1.3-4.6,0.1-4.2,3.6c0.6,4.8-0.5,7.3-5.8,6.6c-4.1-0.6-9-1.5-12.3,0.2c-4.9,2.6-7.1,4.1-7-3.5   c0-2.2-5.5-3.1-6.9-1.2c-1.6,2.3-3.1,4.8-4.4,7.3c-0.6,1-1.2,2.6-0.8,3.4c0.3,0.8,1.9,1.4,3,1.4c14.5,0.1,29.1,0.1,43.6,0.1   c16.6,0,33.3,0.6,49.9-0.2c15.4-0.7,30.8-3.2,46.4-2.6c15.4,0.6,31,1.8,46.1-0.4c12.7-1.9,25.4-0.2,37.6-2.5   c10.6-2,21-1.6,31.4-2.4c4.2-0.3,8.1-3,12.7-2.7c3.8,0.3,7.2-3.5,11.4-2.5c0.6,0.1,1.3-0.7,2-1.1c-1-0.5-1.9-1.4-2.9-1.4   c-6.2-0.1-12.5,0.4-18.7-0.2c-4.8-0.4-9.1,2.1-14.2,0.5c-5-1.5-10.7-0.3-16.1-0.3c-6.2,0-12.5,0.1-18.7-0.1c-1.4,0-3.9-1.3-3.8-1.7   c1.1-7.3-3.5-6-7.6-6.3c-2.2-0.1-4.3-1.7-6.4-2.6c-0.4-0.2-0.9-0.8-0.8-0.9c0.4-0.6,0.8-1.5,1.3-1.6c3.7-0.1,7.5-0.1,11.2-0.1   c6.6,0,13.3-0.1,19.9,0c21.2,0.2,41.6,5.1,61.9,10.6c1,0.3,2.3,1.2,2.4,2c0.2,1-0.5,2.8-1.3,3.1c-4.2,2-8.4,4.4-12.9,5.2   c-7.9,1.5-16.1,1.1-23.8,3c-11.7,2.9-23.8,0.4-35.1,2.9c-14,3.2-27.7,1.3-41.5,2.1c-14.6,0.8-29.2,0-43.9,2.2   c-15.1,2.2-30.7,0.5-46.1,0.5c-15,0-29.9,0-44.9,0s-30.2-1.8-44.8,0.4c-25.9,3.8-51.7,1.6-77.6,2.1c-26.2,0.5-52.4,0.1-78.5,0.1   c-2.5,0-5.4-0.8-7.3,0.4c-1.9,1.2-5.8,3-2.9,7.1c3.4,4.7,2.6,10.7,1.3,15c-2,6.4-1.9,12.5-2.1,18.8c-0.2,4.5-4.1,6.1-6.6,8.8   c-0.4,0.4-2.3-0.4-3.2-1.1c-3.1-2.5-3.8-7.7-1.9-11.6c4.5-9,5.3-12.5,4.1-21c-0.3-2.4,4.3-4.1,0.3-7.4c-1.4-1.1-0.2-5.8-0.2-8.9   c-0.1-7.5-2.4-10.2-9.6-10.5c-7.5-0.3-15-0.4-22.4,0c-6.8,0.4-13.4-1.2-20.3,2.1c-4.2,2-10.4,1.5-15-2.2c-1.2-1-2.7-2.7-3.9-2.5   c-10.7,1.6-20.8-3.6-31.4-2.8c-4.7,0.3-7.9,3-11.5,5.9c-5.9,4.8-12.4,7.6-19.5,2.1L29.3,75.3c-0.1-2.1-0.4-5.9-0.3-6   c6.4-0.8,6.5-8.1,10.4-11.2c6.3-5.1,13.7-4.7,20.2,2.2c3.9,4.1,7.9,5.1,13,5.3c10.2,0.5,20.1-1.4,30.1-2.8   c9.2-8.1,19.5-2.1,29.3-2.5c7.1-0.3,14.2-0.8,21.5,2.1c6.2,2.4,13.4,0.1,20.1-2.2c3.1-1,2.1-3.3,2.1-5.2c0.1-14.5,0-29,0.1-43.5   c0-2.4,0.5-5.1,1.7-7.1c2.5-4.3,4.7-4.7,8.2-2.3c3.8,2.6,4.7,6.4,2.6,10.4c-5,9.1-5,9.1-5,16.1c0,3.5-0.1,7,0,10.5   c0.1,3.4-0.6,8.3,1.2,9.8c2.8,2.3,7.2,2.6,11,3.3c2.4,0.4,5,0.1,7.5,0.1c56.1,0,112.2,0,168.3,0c3.3,0,6.7-0.2,10,0.1   c0.6,0.1,1.3,1.9,1.5,3c0.1,0.6-0.7,2-1.1,2c-4.5-0.1-9.5,0.8-13.2-1c-3.4-1.7-6.4-1.3-9.4-1.3c-43.2-0.1-86.4-0.1-129.7-0.1   c-2.1,0-4.2-0.2-6.2,0.1c-0.9,0.1-2.2,1.3-2.3,2.1c-0.1,1,0.9,3,1.4,3c2.7,0,3.2,1.1,3.6,3.8c0.5,3.7,4,5.4,6.4,3.9   c9.1-5.4,9.2-5.7,15.5-2.2c4.5,2.5,9.2,2.8,14,2.5c1.1-0.1,2.3-0.8,3.4-0.8c4,0,0.6-10.3,7.8-6.1c3.3,1.9,7.2,3,11,3.7   c2.1,0.4,4.5-0.6,6.7-0.9c3.2-0.4,6.3-0.9,9.5-1.1c0.7-0.1,2.1,0.3,2.1,0.7c2.3,11.1,8.7,5.9,14.7,4.8   C322.1,67.3,327.4,67.7,286,76c-58.2,2.6-72,2.7-85.7,2.6c-2.6,0-4.4-0.1-4.8,3.9c-0.2,2.9-6.5,4.3-4.1,8c1.2,1.8,6,1.4,9.2,1.2   c21.7-1.1,43.3,1.9,65-2.2c11.3-2.1,23.2-0.5,34.8-0.3c7.3,0.1,14.4,0.4,20.4-5.2c1.6-1.5,4.2-2.5,6.4-2.6c5.4-0.2,2.4-4.4,3.2-6.7   c-2.1-0.4-4.2-1.5-6.2-1.2c-2.3,0.3-0.1,6-3.9,4.9c-2.1-0.6-3.6-3.6-5.7-4.5c-2.2-0.9-6-1.6-7-0.4c-4,4.9-7.2,0.1-10.6-0.3   c-2.2-0.3-4.3-2.1-6.5-2.3c-1-0.1-7.7-3-3,3.7c0.6,0.8-2.8,4.2-6.3,4.1C268,78.5,254.7,78.7,286,76z M35.7,71.9   c0.6,1.4,1.2,2.8,1.7,4.2c0.4-0.8,1.2-1.7,1.1-2.5c-0.2-1.8-0.9-3.5-1.4-5.2c-0.4,1.1-0.9,2.1,2.6,7.7c-0.4,0-0.7,0-1.1,0   c0.2,0.7,0.4,1.4,0.8,2c0.1,0.2,1-0.3,1.5-0.4C40.5,77.1,40.2,76.6,35.7,71.9z M343.3,81.3c-2.6,0.2-5.2-1-5.4,3.4   c-0.2,4.5,1.9,4.9,5.2,4.6c2.2-0.2,4.9,1.1,5.1-3.4C348.3,81.4,346.2,80.9,343.3,81.3z M51.6,66.1c-2.4,3-3.7,4.7-5.1,6.4   c1.5,1.2,3,3.1,4.7,3.4c3.2,0.5,2.4-2.5,2.3-4.4C53.5,70.2,52.7,69,51.6,66.1z M432.4,59c-0.3,0.8-0.6,1.7-0.9,2.5   c1,0.4,2.4,1.5,3.1,1.2c2-1,3.7-2.6,5.6-3.9c-1-0.4-2.1-1.2-3.1-1.1C435.5,57.8,434,58.6,432.4,59z M424.1,57.6   c-0.4,0.2-1.9,1-3.4,1.7c1.5,0.3,3,0.5,4.5,1c1.1,0.4,1.9,1.3,3,1.6c0.6,0.1,2-0.8,2-1c-0.2-1.1-0.5-2.7-1.3-3.1   C428,57.2,426.5,57.6,424.1,57.6z"
       id="path11" /></g><g
     id="Layer_4_copy"
     style="fill:#272a33;fill-opacity:1"><g
       id="g16"
       style="fill:#272a33;fill-opacity:1"><path
         fill="#373737"
         d="M635.1,121c-2.2,2.1-4.2,4.3-6.6,6.2c-0.6,0.5-2.4,0.6-3.2,0.2c-7-3.2-14.5-4.5-22.2-4.5    c-0.8,0-1.6,0.4-2.4,0.6c-0.4,0.1-0.8,0.3-1.2,0.3c-7.1-1.4-14.2-0.5-21.2,0.7c-1.1,0.2-2.3-0.5-3.4-0.5c-6.5,0.2-12.6-0.3-19,0    c-0.6,0-1.9,0.4-2.4,0.5c-0.8,0.2-1.2,1.2-2.6,1.5c-1.4,10.3-0.4,9.1,1,20.5c-1.3,0.3-2.8,0.9-4.3,1c-2.7,0.1-3.5-1-3.4-3.4    c0.4-8.2,0.6-4.2,0.9-12.3c0.1-1.6-0.5-2.2-0.9-4.1c-1.1,0-2,0-2.9,0c-83.4-0.5-166.9-1.9-250.3-2.4c-47.9-0.3-95.7-0.6-143.6-0.9    c-10.9-0.1-21.5-2.4-31.9-5.4c-0.6-0.2-1.1-0.4-1.7-0.7c-0.3-0.1-0.6-0.3-1.6-0.9c4.7-1.3,8.7-2.5,12.8-3.4    c9.5-2.2,19.2-2.9,29.1-3c61.4-0.2,122.8-0.7,184.2-1c29.7-0.2,59.5-0.3,89.2-0.5c38.2-0.2,76.4-2,114.6-2.3c0.5,0,1-0.1,1.8-0.1    c1.9-5.1,2.3-0.9,0.3-20.1c0.9-0.5,1.9-1,2.8-1.6c0.7,0,1.4,0,2.1,0c1,0.6,2,1.1,2.9,1.6c-1.3,11.1-2.5,11.9-1,22.7    c0.9-0.1,1.8,1.1,2.5,1.2c1.5,0.2,2.5,0.2,4,0.4c7.6,0.7,15.5-0.4,23.1,0.1c3.8,0.3,7.6,0.2,11.4,0.6c3.7,0.4,7.8,1.5,11.5,1.7    c7.7,0.4,14.7-2.5,21.7-5.8c0.9-0.4,2.8-0.4,3.5,0.1c2.4,1.9,4.4,4.2,6.5,6.3C635.1,116.5,635.1,118.7,635.1,121z"
         id="path14"
         style="fill:#272a33;fill-opacity:1" /></g></g><g
     id="Layer_3"><g
       id="g39"><rect
         x="171"
         y="43.7"
         fill="none"
         width="363"
         height="66.9"
         id="rect19" /><path
         fill="#FFFFFF"
         d="M186.2,69.3v17.2c0,1.3,0,2.5,0,3.6c0,1.1,0,2.1,0.1,3c0,0.6,0.3,0.9,0.8,1.2l3.7,1.1l0.1,1.4    c-2.6-0.1-5.2-0.1-7.8-0.1c-2.6,0-5.4,0-8.2,0.1l-0.1-1.4l4.1-1.2c0.6-0.2,0.9-0.5,0.9-1.1c0-0.9,0-1.9,0.1-3c0-1.1,0-2.3,0-3.6    V69.4c0-1.1,0-2.1,0-3c0-0.9,0-1.7-0.1-2.5c0-0.6-0.3-1-0.8-1.1l-4.1-1.3l-0.1-1.4c2.9,0.1,5.6,0.1,8.2,0.1c2.6,0,5.2,0,7.9-0.1    l0.1,1.4l-3.8,1.2c-0.5,0.1-0.8,0.4-0.8,1c0,0.8,0,1.7-0.1,2.6C186.2,67.2,186.2,68.2,186.2,69.3z M187.1,78.3l9.2-10.2    c1-1.2,1.9-2.2,2.5-3c0.6-0.8,1-1.4,1-1.9c0-0.4-0.3-0.7-0.9-0.9l-2.7-0.7l-0.1-1.5c2.2,0.1,4.5,0.1,7.1,0.1c2.7,0,5.2,0,7.5-0.1    l0.1,1.4l-3.4,1.1c-1,0.3-1.9,0.8-2.7,1.5c-0.8,0.7-1.6,1.5-2.4,2.4l-9,9.7l11.4,15c0.7,0.8,1.3,1.5,1.9,2    c0.6,0.5,1.4,0.9,2.5,1.2l3,0.9l0.1,1.4c-1.9-0.1-4.3-0.1-7.1-0.1c-0.8,0-1.5,0-2.3,0c-0.8,0-1.5,0-2.3,0.1    c-0.4-0.8-1.1-1.9-2.1-3.4c-1-1.5-2.4-3.4-4.1-5.6L187.1,78.3z"
         id="path21" /><path
         fill="#FFFFFF"
         d="M221.6,93.1c0,0.4,0.1,0.7,0.3,0.9c0.2,0.2,0.5,0.4,0.9,0.5l3.1,0.9l0.1,1.5c-3.2-0.1-5.6-0.1-7.3-0.1    c-2,0-4.3,0-6.8,0.1l-0.2-1.4l3.4-1c0.8-0.3,1.5-0.7,1.9-1.2c0.4-0.5,0.8-1.4,1.3-2.6l13.2-30.6l3.1-0.5L246,90.1    c0.6,1.5,1.1,2.6,1.5,3.1c0.4,0.5,1.1,0.9,2,1.2l3.2,0.9l0.1,1.4c-2.9-0.1-5.6-0.1-8.1-0.1c-2.6,0-5.5,0-9,0.1l-0.1-1.4l3.1-0.9    c0.4-0.1,0.8-0.3,1-0.5c0.2-0.2,0.3-0.5,0.3-0.9c0-0.4-0.1-1-0.4-1.8c-0.2-0.7-0.6-1.7-1-2.8l-1.6-4.3h-12.2l-1.7,4.3    c-0.5,1.2-0.9,2.2-1.1,3C221.7,92.1,221.6,92.7,221.6,93.1z M231.2,68.1l-5.2,13h9.9L231.2,68.1z"
         id="path23" /><path
         fill="#FFFFFF"
         d="M282.9,71.3l-1.3,0.2l-2.3-8.4c-2.2-0.7-4.2-1.1-6.1-1.1c-4.4,0-7.8,1.4-10.3,4.3    c-2.5,2.9-3.7,6.8-3.7,11.9c0,5.1,1.3,9.2,4,12.2c2.7,3,6.3,4.5,10.8,4.5c1.5,0,3-0.2,4.5-0.7v-4.3c0-1.1,0-2.1,0-3    c0-0.9,0-1.7,0-2.5c0-0.6-0.3-1-0.8-1.1l-4.1-1.3l-0.1-1.4c2.9,0,5.6,0.1,8.3,0.1c2.6,0,5.2,0,7.7-0.1l0.1,1.4l-3.6,1.1    c-0.5,0.1-0.8,0.5-0.9,1c0,0.9,0,1.8-0.1,2.7c0,0.9,0,1.9,0,3v6.1l-0.2,0.2c-3.9,1.1-7.5,1.6-10.8,1.6c-6.7,0-12.1-1.6-16.1-4.9    c-4-3.3-6-7.8-6-13.7c0-6.2,2.1-11,6.2-14.6c4.1-3.5,9.8-5.3,16.9-5.3c3.1,0,6.3,0.5,9.7,1.4l0.2,0.2L282.9,71.3z"
         id="path25" /><path
         fill="#FFFFFF"
         d="M319,60.2c2.3,0,5,0,8.1-0.1l0.1,1.4l-4,1.2c-0.6,0.2-0.9,0.5-0.9,1.1c0,0.9-0.1,2.5-0.1,4.6v18.1    c0,2.4,0,4.9,0,7.2h13.1l4.2-8.6l1.5-0.2l-0.7,11.7l-0.3,0.2c-5-0.1-9.5-0.1-13.7-0.1h-7.2c-2.3,0-5,0-8.1,0.1l-0.1-1.4l4-1.2    c0.5-0.2,0.8-0.6,0.9-1.1c0-0.9,0.1-2.4,0.1-4.6V69.7c0-2.8,0-4.7-0.1-5.8c0-0.7-0.3-1.1-0.9-1.2l-4-1.2l-0.1-1.4    C314,60.1,316.7,60.2,319,60.2z"
         id="path27" /><path
         fill="#FFFFFF"
         d="M349.9,93.1c0,0.4,0.1,0.7,0.3,0.9c0.2,0.2,0.5,0.4,0.9,0.5l3.1,0.9l0.1,1.5c-3.2-0.1-5.6-0.1-7.3-0.1    c-2,0-4.3,0-6.8,0.1l-0.2-1.4l3.4-1c0.8-0.3,1.5-0.7,1.9-1.2c0.4-0.5,0.8-1.4,1.3-2.6l13.2-30.6l3.1-0.5l11.4,30.6    c0.6,1.5,1.1,2.6,1.5,3.1c0.4,0.5,1.1,0.9,2,1.2l3.2,0.9l0.1,1.4c-2.9-0.1-5.6-0.1-8.1-0.1c-2.6,0-5.5,0-9,0.1l-0.1-1.4l3.1-0.9    c0.4-0.1,0.8-0.3,1-0.5c0.2-0.2,0.3-0.5,0.3-0.9c0-0.4-0.1-1-0.4-1.8c-0.2-0.7-0.6-1.7-1-2.8l-1.6-4.3h-12.2l-1.7,4.3    c-0.5,1.2-0.9,2.2-1.1,3C350,92.1,349.9,92.7,349.9,93.1z M359.5,68.1l-5.2,13h9.9L359.5,68.1z"
         id="path29" /><path
         fill="#FFFFFF"
         d="M389.2,96.7c-2.3,0-5.1,0-8.2,0.1l-0.1-1.4l4-1.2c0.5-0.2,0.8-0.6,0.9-1.1c0-0.9,0.1-2.4,0.1-4.6V69.7    c0-2.8,0-4.7-0.1-5.8c0-0.7-0.3-1.1-0.9-1.2l-4-1.2l-0.1-1.4c3.2,0.1,6,0.1,8.3,0.1c1.9,0,3.7,0,5.4-0.1c1.8-0.1,3.6-0.1,5.4-0.1    c6.6,0,11.6,1.4,14.9,4.2c3.3,2.8,5,6.9,5,12.4c0,6.4-1.8,11.4-5.5,15c-3.7,3.6-8.8,5.3-15.5,5.3c-1.9,0-3.5,0-4.9-0.1    C392.4,96.7,390.9,96.7,389.2,96.7z M392.2,93.7c1,0.1,2.1,0.2,3.1,0.3c1,0.1,2,0.1,3,0.1c4.6,0,8.1-1.3,10.6-3.9    c2.4-2.6,3.7-6.6,3.7-12c0-5.2-1.2-9.1-3.5-11.6c-2.3-2.5-5.9-3.8-10.9-3.8c-0.8,0-1.6,0-2.6,0c-1,0-2.1,0.1-3.3,0.2V93.7z"
         id="path31" /><path
         fill="#FFFFFF"
         d="M428.3,96.7c-2.3,0-5.1,0-8.2,0.1l-0.1-1.4l4-1.2c0.5-0.2,0.8-0.6,0.9-1.1c0-0.9,0.1-2.4,0.1-4.6V69.7    c0-2.8,0-4.7-0.1-5.8c0-0.7-0.3-1.1-0.9-1.2l-4-1.2l-0.1-1.4c3.2,0.1,6,0.1,8.3,0.1c1.9,0,3.7,0,5.4-0.1c1.8-0.1,3.6-0.1,5.4-0.1    c6.6,0,11.6,1.4,14.9,4.2c3.3,2.8,5,6.9,5,12.4c0,6.4-1.8,11.4-5.5,15c-3.7,3.6-8.8,5.3-15.5,5.3c-1.9,0-3.5,0-4.9-0.1    C431.6,96.7,430,96.7,428.3,96.7z M431.4,93.7c1,0.1,2.1,0.2,3.1,0.3c1,0.1,2,0.1,3,0.1c4.6,0,8.1-1.3,10.6-3.9    c2.4-2.6,3.7-6.6,3.7-12c0-5.2-1.2-9.1-3.5-11.6c-2.3-2.5-5.9-3.8-10.9-3.8c-0.8,0-1.6,0-2.6,0c-1,0-2.1,0.1-3.3,0.2V93.7z"
         id="path33" /><path
         fill="#FFFFFF"
         d="M466.8,60.2h7.4c4.3,0,8.9,0,13.6-0.1l0.3,0.2l-1.9,9.9l-1.4,0.2l-1.9-7.3H470v13.5h1.8c1.7,0,3.5,0,5.6,0    c0.6,0,1-0.3,1.2-0.9l0.9-3.9l1.8,0c0,2.7-0.1,4.8-0.1,6.3c0,1.4,0,3.5,0.1,6.2l-1.8,0.1l-1-4c-0.2-0.6-0.5-0.9-1.1-0.9    c-2.1,0-4,0-5.6,0H470v7.1c0,2.4,0,4.9,0.1,7.2h13l3.8-8.1l1.5-0.2l-0.7,11.1l-0.2,0.2c-5-0.1-9.6-0.1-13.8-0.1h-6.8    c-2.3,0-5,0-8.1,0.1l-0.1-1.4l4-1.2c0.5-0.2,0.8-0.6,0.9-1.1c0-0.9,0.1-2.4,0.1-4.6V69.7c0-2.8,0-4.7-0.1-5.8    c0-0.7-0.3-1.1-0.9-1.2l-4-1.2l-0.1-1.4C461.8,60.1,464.5,60.2,466.8,60.2z"
         id="path35" /><path
         fill="#FFFFFF"
         d="M502.5,86.5c0,1.3,0,2.5,0,3.6s0,2,0.1,2.9c0,0.7,0.3,1.1,0.9,1.3l3.7,1.1l0.1,1.4    c-2.6-0.1-5.3-0.1-7.8-0.1c-2.6,0-5.4,0-8.2,0.1l-0.1-1.4l4.1-1.2c0.6-0.2,0.9-0.5,0.9-1.1c0-0.9,0-1.9,0.1-3s0-2.3,0-3.6V69.4    c0-1.1,0-2.1,0-3s0-1.7-0.1-2.5c0-0.6-0.3-1-0.8-1.1l-4.1-1.3L491,60c2.9,0.1,5.7,0.1,8.4,0.1c0.5,0,1,0,1.8-0.1s1.6-0.1,2.7-0.1    c1,0,1.9-0.1,2.6-0.1c0.7,0,1.3,0,1.7,0c4.5,0,7.8,0.8,10.1,2.3c2.2,1.5,3.3,3.8,3.3,6.7c0,2.6-0.7,4.8-2.1,6.3    c-1.4,1.6-3.5,2.8-6.3,3.7c1.6,2.3,2.9,4.3,4.1,6.2c1.2,1.9,2.2,3.4,3.1,4.7c0.9,1.3,1.7,2.3,2.4,3c0.4,0.4,0.8,0.7,1.2,1    c0.4,0.3,0.8,0.5,1.2,0.7s0.8,0.3,1.3,0.5s0.9,0.3,1.5,0.4l0.2,1.5c-1.6,0.2-2.9,0.3-4,0.3c-0.9,0-1.7,0-2.4-0.1    c-0.7-0.1-1.3-0.1-1.9-0.3c-0.6-0.1-1-0.3-1.5-0.5s-0.9-0.5-1.3-0.8c-0.9-0.7-1.8-1.7-2.7-3c-0.9-1.3-1.9-2.9-2.9-4.8    c-1.1-1.9-2.1-3.6-3-5c-0.3-0.5-0.6-0.9-0.9-1.2s-0.5-0.6-0.8-0.7c-0.3-0.2-0.6-0.3-1-0.4c-0.4-0.1-0.9-0.1-1.5-0.1l-1.6,0V86.5z     M502.5,77.6c1,0.1,2,0.1,3,0.1c3.1,0,5.3-0.6,6.7-1.9c1.4-1.2,2.1-3.2,2.1-5.8c0-2.6-0.7-4.4-2-5.6c-1.3-1.2-3.5-1.8-6.4-1.8    c-0.5,0-1,0-1.6,0.1c-0.6,0-1.2,0.1-1.8,0.1V77.6z"
         id="path37" /></g></g></svg>