<?xml version="1.0" encoding="utf-8" ?>
<svg baseProfile="full" height="1280px" version="1.1" width="1280px" xmlns="http://www.w3.org/2000/svg" xmlns:ev="http://www.w3.org/2001/xml-events" xmlns:xlink="http://www.w3.org/1999/xlink"><defs /><rect fill="rgb(255,0,255)" height="40px" width="40px" x="640px" y="600px" /><rect fill="rgb(19,13,29)" height="40px" width="40px" x="440px" y="640px" /><rect fill="rgb(19,13,29)" height="40px" width="40px" x="480px" y="640px" /><rect fill="rgb(19,13,29)" height="40px" width="40px" x="520px" y="640px" /><rect fill="rgb(19,13,29)" height="40px" width="40px" x="560px" y="640px" /><rect fill="rgb(19,13,29)" height="40px" width="40px" x="600px" y="640px" /><rect fill="rgb(19,13,29)" height="40px" width="40px" x="640px" y="640px" /><rect fill="rgb(19,13,29)" height="40px" width="40px" x="680px" y="640px" /><rect fill="rgb(19,13,29)" height="40px" width="40px" x="720px" y="640px" /><rect fill="rgb(19,13,29)" height="40px" width="40px" x="760px" y="640px" /><rect fill="rgb(19,13,29)" height="40px" width="40px" x="400px" y="680px" /><rect fill="rgb(19,13,29)" height="40px" width="40px" x="440px" y="680px" /><rect fill="rgb(19,13,29)" height="40px" width="40px" x="480px" y="680px" /><rect fill="rgb(19,13,29)" height="40px" width="40px" x="520px" y="680px" /><rect fill="rgb(19,13,29)" height="40px" width="40px" x="560px" y="680px" /><rect fill="rgb(19,13,29)" height="40px" width="40px" x="600px" y="680px" /><rect fill="rgb(19,13,29)" height="40px" width="40px" x="640px" y="680px" /><rect fill="rgb(19,13,29)" height="40px" width="40px" x="680px" y="680px" /><rect fill="rgb(19,13,29)" height="40px" width="40px" x="720px" y="680px" /><rect fill="rgb(42,42,52)" height="40px" width="40px" x="760px" y="680px" /><rect fill="rgb(19,13,29)" height="40px" width="40px" x="800px" y="680px" /><rect fill="rgb(19,13,29)" height="40px" width="40px" x="840px" y="680px" /><rect fill="rgb(19,13,29)" height="40px" width="40px" x="880px" y="680px" /><rect fill="rgb(19,13,29)" height="40px" width="40px" x="920px" y="680px" /><rect fill="rgb(19,13,29)" height="40px" width="40px" x="360px" y="720px" /><rect fill="rgb(196,207,161)" height="40px" width="40px" x="400px" y="720px" /><rect fill="rgb(196,207,161)" height="40px" width="40px" x="440px" y="720px" /><rect fill="rgb(151,167,146)" height="40px" width="40px" x="480px" y="720px" /><rect fill="rgb(42,42,52)" height="40px" width="40px" x="520px" y="720px" /><rect fill="rgb(19,13,29)" height="40px" width="40px" x="560px" y="720px" /><rect fill="rgb(19,13,29)" height="40px" width="40px" x="600px" y="720px" /><rect fill="rgb(19,13,29)" height="40px" width="40px" x="640px" y="720px" /><rect fill="rgb(19,13,29)" height="40px" width="40px" x="680px" y="720px" /><rect fill="rgb(19,13,29)" height="40px" width="40px" x="720px" y="720px" /><rect fill="rgb(66,72,75)" height="40px" width="40px" x="760px" y="720px" /><rect fill="rgb(151,167,146)" height="40px" width="40px" x="800px" y="720px" /><rect fill="rgb(29,133,171)" height="40px" width="40px" x="840px" y="720px" /><rect fill="rgb(44,175,222)" height="40px" width="40px" x="880px" y="720px" /><rect fill="rgb(19,13,29)" height="40px" width="40px" x="920px" y="720px" /><rect fill="rgb(19,13,29)" height="40px" width="40px" x="320px" y="760px" /><rect fill="rgb(255,255,255)" height="40px" width="40px" x="360px" y="760px" /><rect fill="rgb(255,255,255)" height="40px" width="40px" x="400px" y="760px" /><rect fill="rgb(151,167,146)" height="40px" width="40px" x="440px" y="760px" /><rect fill="rgb(151,167,146)" height="40px" width="40px" x="480px" y="760px" /><rect fill="rgb(42,42,52)" height="40px" width="40px" x="520px" y="760px" /><rect fill="rgb(108,119,110)" height="40px" width="40px" x="560px" y="760px" /><rect fill="rgb(196,207,161)" height="40px" width="40px" x="600px" y="760px" /><rect fill="rgb(151,167,146)" height="40px" width="40px" x="640px" y="760px" /><rect fill="rgb(42,42,52)" height="40px" width="40px" x="680px" y="760px" /><rect fill="rgb(196,207,161)" height="40px" width="40px" x="720px" y="760px" /><rect fill="rgb(151,167,146)" height="40px" width="40px" x="760px" y="760px" /><rect fill="rgb(66,72,75)" height="40px" width="40px" x="800px" y="760px" /><rect fill="rgb(34,39,96)" height="40px" width="40px" x="840px" y="760px" /><rect fill="rgb(44,175,222)" height="40px" width="40px" x="880px" y="760px" /><rect fill="rgb(19,13,29)" height="40px" width="40px" x="920px" y="760px" /><rect fill="rgb(19,13,29)" height="40px" width="40px" x="280px" y="800px" /><rect fill="rgb(19,13,29)" height="40px" width="40px" x="320px" y="800px" /><rect fill="rgb(66,72,75)" height="40px" width="40px" x="360px" y="800px" /><rect fill="rgb(151,167,146)" height="40px" width="40px" x="400px" y="800px" /><rect fill="rgb(66,72,75)" height="40px" width="40px" x="440px" y="800px" /><rect fill="rgb(19,13,29)" height="40px" width="40px" x="480px" y="800px" /><rect fill="rgb(66,72,75)" height="40px" width="40px" x="520px" y="800px" /><rect fill="rgb(196,207,161)" height="40px" width="40px" x="560px" y="800px" /><rect fill="rgb(255,255,255)" height="40px" width="40px" x="600px" y="800px" /><rect fill="rgb(196,207,161)" height="40px" width="40px" x="640px" y="800px" /><rect fill="rgb(66,72,75)" height="40px" width="40px" x="680px" y="800px" /><rect fill="rgb(255,255,255)" height="40px" width="40px" x="720px" y="800px" /><rect fill="rgb(151,167,146)" height="40px" width="40px" x="760px" y="800px" /><rect fill="rgb(19,13,29)" height="40px" width="40px" x="800px" y="800px" /><rect fill="rgb(19,13,29)" height="40px" width="40px" x="840px" y="800px" /><rect fill="rgb(29,133,171)" height="40px" width="40px" x="880px" y="800px" /><rect fill="rgb(19,13,29)" height="40px" width="40px" x="920px" y="800px" /><rect fill="rgb(19,13,29)" height="40px" width="40px" x="280px" y="840px" /><rect fill="rgb(132,71,21)" height="40px" width="40px" x="320px" y="840px" /><rect fill="rgb(59,20,6)" height="40px" width="40px" x="360px" y="840px" /><rect fill="rgb(85,42,17)" height="40px" width="40px" x="400px" y="840px" /><rect fill="rgb(132,71,21)" height="40px" width="40px" x="440px" y="840px" /><rect fill="rgb(59,20,6)" height="40px" width="40px" x="480px" y="840px" /><rect fill="rgb(59,20,6)" height="40px" width="40px" x="520px" y="840px" /><rect fill="rgb(108,119,110)" height="40px" width="40px" x="560px" y="840px" /><rect fill="rgb(151,167,146)" height="40px" width="40px" x="600px" y="840px" /><rect fill="rgb(108,119,110)" height="40px" width="40px" x="640px" y="840px" /><rect fill="rgb(42,42,52)" height="40px" width="40px" x="680px" y="840px" /><rect fill="rgb(108,119,110)" height="40px" width="40px" x="720px" y="840px" /><rect fill="rgb(66,72,75)" height="40px" width="40px" x="760px" y="840px" /><rect fill="rgb(85,42,17)" height="40px" width="40px" x="800px" y="840px" /><rect fill="rgb(19,13,29)" height="40px" width="40px" x="840px" y="840px" /><rect fill="rgb(26,78,131)" height="40px" width="40px" x="880px" y="840px" /><rect fill="rgb(19,13,29)" height="40px" width="40px" x="920px" y="840px" /><rect fill="rgb(19,13,29)" height="40px" width="40px" x="320px" y="880px" /><rect fill="rgb(85,42,17)" height="40px" width="40px" x="360px" y="880px" /><rect fill="rgb(132,71,21)" height="40px" width="40px" x="400px" y="880px" /><rect fill="rgb(196,207,161)" height="40px" width="40px" x="440px" y="880px" /><rect fill="rgb(151,167,146)" height="40px" width="40px" x="480px" y="880px" /><rect fill="rgb(59,20,6)" height="40px" width="40px" x="520px" y="880px" /><rect fill="rgb(85,42,17)" height="40px" width="40px" x="560px" y="880px" /><rect fill="rgb(132,71,21)" height="40px" width="40px" x="600px" y="880px" /><rect fill="rgb(132,71,21)" height="40px" width="40px" x="640px" y="880px" /><rect fill="rgb(151,167,146)" height="40px" width="40px" x="680px" y="880px" /><rect fill="rgb(132,71,21)" height="40px" width="40px" x="720px" y="880px" /><rect fill="rgb(19,13,29)" height="40px" width="40px" x="760px" y="880px" /><rect fill="rgb(151,167,146)" height="40px" width="40px" x="800px" y="880px" /><rect fill="rgb(19,13,29)" height="40px" width="40px" x="840px" y="880px" /><rect fill="rgb(26,78,131)" height="40px" width="40px" x="880px" y="880px" /><rect fill="rgb(19,13,29)" height="40px" width="40px" x="920px" y="880px" /><rect fill="rgb(19,13,29)" height="40px" width="40px" x="360px" y="920px" /><rect fill="rgb(59,20,6)" height="40px" width="40px" x="400px" y="920px" /><rect fill="rgb(151,167,146)" height="40px" width="40px" x="440px" y="920px" /><rect fill="rgb(196,207,161)" height="40px" width="40px" x="480px" y="920px" /><rect fill="rgb(26,78,131)" height="40px" width="40px" x="520px" y="920px" /><rect fill="rgb(26,78,131)" height="40px" width="40px" x="560px" y="920px" /><rect fill="rgb(29,133,171)" height="40px" width="40px" x="600px" y="920px" /><rect fill="rgb(44,175,222)" height="40px" width="40px" x="640px" y="920px" /><rect fill="rgb(26,78,131)" height="40px" width="40px" x="680px" y="920px" /><rect fill="rgb(29,133,171)" height="40px" width="40px" x="720px" y="920px" /><rect fill="rgb(34,39,96)" height="40px" width="40px" x="760px" y="920px" /><rect fill="rgb(151,167,146)" height="40px" width="40px" x="800px" y="920px" /><rect fill="rgb(19,13,29)" height="40px" width="40px" x="840px" y="920px" /><rect fill="rgb(26,78,131)" height="40px" width="40px" x="880px" y="920px" /><rect fill="rgb(19,13,29)" height="40px" width="40px" x="920px" y="920px" /><rect fill="rgb(19,13,29)" height="40px" width="40px" x="400px" y="960px" /><rect fill="rgb(19,13,29)" height="40px" width="40px" x="440px" y="960px" /><rect fill="rgb(26,78,131)" height="40px" width="40px" x="480px" y="960px" /><rect fill="rgb(29,133,171)" height="40px" width="40px" x="520px" y="960px" /><rect fill="rgb(29,133,171)" height="40px" width="40px" x="560px" y="960px" /><rect fill="rgb(44,175,222)" height="40px" width="40px" x="600px" y="960px" /><rect fill="rgb(29,133,171)" height="40px" width="40px" x="640px" y="960px" /><rect fill="rgb(26,78,131)" height="40px" width="40px" x="680px" y="960px" /><rect fill="rgb(29,133,171)" height="40px" width="40px" x="720px" y="960px" /><rect fill="rgb(26,78,131)" height="40px" width="40px" x="760px" y="960px" /><rect fill="rgb(19,13,29)" height="40px" width="40px" x="800px" y="960px" /><rect fill="rgb(34,39,96)" height="40px" width="40px" x="840px" y="960px" /><rect fill="rgb(26,78,131)" height="40px" width="40px" x="880px" y="960px" /><rect fill="rgb(19,13,29)" height="40px" width="40px" x="920px" y="960px" /><rect fill="rgb(19,13,29)" height="40px" width="40px" x="440px" y="1000px" /><rect fill="rgb(42,42,52)" height="40px" width="40px" x="480px" y="1000px" /><rect fill="rgb(42,42,52)" height="40px" width="40px" x="520px" y="1000px" /><rect fill="rgb(34,39,96)" height="40px" width="40px" x="560px" y="1000px" /><rect fill="rgb(34,39,96)" height="40px" width="40px" x="600px" y="1000px" /><rect fill="rgb(19,13,29)" height="40px" width="40px" x="640px" y="1000px" /><rect fill="rgb(42,42,52)" height="40px" width="40px" x="680px" y="1000px" /><rect fill="rgb(42,42,52)" height="40px" width="40px" x="720px" y="1000px" /><rect fill="rgb(19,13,29)" height="40px" width="40px" x="760px" y="1000px" /><rect fill="rgb(26,78,131)" height="40px" width="40px" x="800px" y="1000px" /><rect fill="rgb(26,78,131)" height="40px" width="40px" x="840px" y="1000px" /><rect fill="rgb(19,13,29)" height="40px" width="40px" x="880px" y="1000px" /><rect fill="rgb(85,42,17)" height="40px" width="40px" x="400px" y="1040px" /><rect fill="rgb(132,71,21)" height="40px" width="40px" x="440px" y="1040px" /><rect fill="rgb(66,72,75)" height="40px" width="40px" x="480px" y="1040px" /><rect fill="rgb(19,13,29)" height="40px" width="40px" x="520px" y="1040px" /><rect fill="rgb(19,13,29)" height="40px" width="40px" x="640px" y="1040px" /><rect fill="rgb(66,72,75)" height="40px" width="40px" x="680px" y="1040px" /><rect fill="rgb(66,72,75)" height="40px" width="40px" x="720px" y="1040px" /><rect fill="rgb(19,13,29)" height="40px" width="40px" x="760px" y="1040px" /><rect fill="rgb(19,13,29)" height="40px" width="40px" x="800px" y="1040px" /><rect fill="rgb(19,13,29)" height="40px" width="40px" x="840px" y="1040px" /><rect fill="rgb(19,13,29)" height="40px" width="40px" x="400px" y="1080px" /><rect fill="rgb(85,42,17)" height="40px" width="40px" x="440px" y="1080px" /><rect fill="rgb(19,13,29)" height="40px" width="40px" x="480px" y="1080px" /><rect fill="rgb(19,13,29)" height="40px" width="40px" x="680px" y="1080px" /><rect fill="rgb(85,42,17)" height="40px" width="40px" x="720px" y="1080px" /><rect fill="rgb(19,13,29)" height="40px" width="40px" x="760px" y="1080px" /></svg>