<?xml version="1.0" encoding="utf-8" ?>
<svg baseProfile="full" height="640px" version="1.1" width="640px" xmlns="http://www.w3.org/2000/svg" xmlns:ev="http://www.w3.org/2001/xml-events" xmlns:xlink="http://www.w3.org/1999/xlink"><defs /><rect fill="rgb(19,13,29)" height="40px" width="40px" x="160px" y="40px" /><rect fill="rgb(19,13,29)" height="40px" width="40px" x="200px" y="40px" /><rect fill="rgb(19,13,29)" height="40px" width="40px" x="240px" y="40px" /><rect fill="rgb(19,13,29)" height="40px" width="40px" x="40px" y="80px" /><rect fill="rgb(19,13,29)" height="40px" width="40px" x="80px" y="80px" /><rect fill="rgb(19,13,29)" height="40px" width="40px" x="120px" y="80px" /><rect fill="rgb(34,39,96)" height="40px" width="40px" x="160px" y="80px" /><rect fill="rgb(29,133,171)" height="40px" width="40px" x="200px" y="80px" /><rect fill="rgb(44,175,222)" height="40px" width="40px" x="240px" y="80px" /><rect fill="rgb(19,13,29)" height="40px" width="40px" x="280px" y="80px" /><rect fill="rgb(19,13,29)" height="40px" width="40px" x="320px" y="80px" /><rect fill="rgb(34,39,96)" height="40px" width="40px" x="40px" y="120px" /><rect fill="rgb(29,133,171)" height="40px" width="40px" x="80px" y="120px" /><rect fill="rgb(44,175,222)" height="40px" width="40px" x="120px" y="120px" /><rect fill="rgb(19,13,29)" height="40px" width="40px" x="160px" y="120px" /><rect fill="rgb(34,39,96)" height="40px" width="40px" x="200px" y="120px" /><rect fill="rgb(29,133,171)" height="40px" width="40px" x="240px" y="120px" /><rect fill="rgb(26,78,131)" height="40px" width="40px" x="280px" y="120px" /><rect fill="rgb(34,39,96)" height="40px" width="40px" x="320px" y="120px" /><rect fill="rgb(19,13,29)" height="40px" width="40px" x="360px" y="120px" /><rect fill="rgb(34,39,96)" height="40px" width="40px" x="80px" y="160px" /><rect fill="rgb(29,133,171)" height="40px" width="40px" x="120px" y="160px" /><rect fill="rgb(26,78,131)" height="40px" width="40px" x="160px" y="160px" /><rect fill="rgb(19,13,29)" height="40px" width="40px" x="200px" y="160px" /><rect fill="rgb(157,202,34)" height="40px" width="40px" x="240px" y="160px" /><rect fill="rgb(100,155,13)" height="40px" width="40px" x="280px" y="160px" /><rect fill="rgb(19,13,29)" height="40px" width="40px" x="320px" y="160px" /><rect fill="rgb(26,78,131)" height="40px" width="40px" x="360px" y="160px" /><rect fill="rgb(19,13,29)" height="40px" width="40px" x="400px" y="160px" /><rect fill="rgb(19,13,29)" height="40px" width="40px" x="0px" y="200px" /><rect fill="rgb(19,13,29)" height="40px" width="40px" x="40px" y="200px" /><rect fill="rgb(19,13,29)" height="40px" width="40px" x="80px" y="200px" /><rect fill="rgb(19,13,29)" height="40px" width="40px" x="120px" y="200px" /><rect fill="rgb(157,202,34)" height="40px" width="40px" x="160px" y="200px" /><rect fill="rgb(100,155,13)" height="40px" width="40px" x="200px" y="200px" /><rect fill="rgb(13,41,13)" height="40px" width="40px" x="240px" y="200px" /><rect fill="rgb(157,202,34)" height="40px" width="40px" x="280px" y="200px" /><rect fill="rgb(13,41,13)" height="40px" width="40px" x="320px" y="200px" /><rect fill="rgb(100,155,13)" height="40px" width="40px" x="360px" y="200px" /><rect fill="rgb(19,13,29)" height="40px" width="40px" x="400px" y="200px" /><rect fill="rgb(34,39,96)" height="40px" width="40px" x="0px" y="240px" /><rect fill="rgb(29,133,171)" height="40px" width="40px" x="40px" y="240px" /><rect fill="rgb(44,175,222)" height="40px" width="40px" x="80px" y="240px" /><rect fill="rgb(34,39,96)" height="40px" width="40px" x="120px" y="240px" /><rect fill="rgb(13,41,13)" height="40px" width="40px" x="160px" y="240px" /><rect fill="rgb(157,202,34)" height="40px" width="40px" x="200px" y="240px" /><rect fill="rgb(59,20,6)" height="40px" width="40px" x="240px" y="240px" /><rect fill="rgb(59,20,6)" height="40px" width="40px" x="280px" y="240px" /><rect fill="rgb(19,13,29)" height="40px" width="40px" x="320px" y="240px" /><rect fill="rgb(59,20,6)" height="40px" width="40px" x="360px" y="240px" /><rect fill="rgb(19,13,29)" height="40px" width="40px" x="400px" y="240px" /><rect fill="rgb(34,39,96)" height="40px" width="40px" x="40px" y="280px" /><rect fill="rgb(26,78,131)" height="40px" width="40px" x="80px" y="280px" /><rect fill="rgb(157,202,34)" height="40px" width="40px" x="120px" y="280px" /><rect fill="rgb(100,155,13)" height="40px" width="40px" x="160px" y="280px" /><rect fill="rgb(59,20,6)" height="40px" width="40px" x="200px" y="280px" /><rect fill="rgb(243,172,92)" height="40px" width="40px" x="240px" y="280px" /><rect fill="rgb(219,87,67)" height="40px" width="40px" x="280px" y="280px" /><rect fill="rgb(126,48,65)" height="40px" width="40px" x="320px" y="280px" /><rect fill="rgb(219,87,67)" height="40px" width="40px" x="360px" y="280px" /><rect fill="rgb(19,13,29)" height="40px" width="40px" x="400px" y="280px" /><rect fill="rgb(19,13,29)" height="40px" width="40px" x="0px" y="320px" /><rect fill="rgb(19,13,29)" height="40px" width="40px" x="40px" y="320px" /><rect fill="rgb(19,13,29)" height="40px" width="40px" x="80px" y="320px" /><rect fill="rgb(19,13,29)" height="40px" width="40px" x="120px" y="320px" /><rect fill="rgb(13,41,13)" height="40px" width="40px" x="160px" y="320px" /><rect fill="rgb(59,20,6)" height="40px" width="40px" x="200px" y="320px" /><rect fill="rgb(219,87,67)" height="40px" width="40px" x="240px" y="320px" /><rect fill="rgb(19,13,29)" height="40px" width="40px" x="280px" y="320px" /><rect fill="rgb(255,198,75)" height="40px" width="40px" x="320px" y="320px" /><rect fill="rgb(255,221,156)" height="40px" width="40px" x="360px" y="320px" /><rect fill="rgb(254,165,61)" height="40px" width="40px" x="400px" y="320px" /><rect fill="rgb(19,13,29)" height="40px" width="40px" x="440px" y="320px" /><rect fill="rgb(34,39,96)" height="40px" width="40px" x="0px" y="360px" /><rect fill="rgb(29,133,171)" height="40px" width="40px" x="40px" y="360px" /><rect fill="rgb(26,78,131)" height="40px" width="40px" x="80px" y="360px" /><rect fill="rgb(100,155,13)" height="40px" width="40px" x="120px" y="360px" /><rect fill="rgb(51,102,13)" height="40px" width="40px" x="160px" y="360px" /><rect fill="rgb(178,110,61)" height="40px" width="40px" x="200px" y="360px" /><rect fill="rgb(254,165,61)" height="40px" width="40px" x="240px" y="360px" /><rect fill="rgb(255,198,75)" height="40px" width="40px" x="280px" y="360px" /><rect fill="rgb(255,198,75)" height="40px" width="40px" x="320px" y="360px" /><rect fill="rgb(255,198,75)" height="40px" width="40px" x="360px" y="360px" /><rect fill="rgb(255,221,156)" height="40px" width="40px" x="400px" y="360px" /><rect fill="rgb(85,42,17)" height="40px" width="40px" x="440px" y="360px" /><rect fill="rgb(19,13,29)" height="40px" width="40px" x="40px" y="400px" /><rect fill="rgb(19,13,29)" height="40px" width="40px" x="80px" y="400px" /><rect fill="rgb(19,13,29)" height="40px" width="40px" x="120px" y="400px" /><rect fill="rgb(13,41,13)" height="40px" width="40px" x="160px" y="400px" /><rect fill="rgb(254,165,61)" height="40px" width="40px" x="200px" y="400px" /><rect fill="rgb(19,13,29)" height="40px" width="40px" x="240px" y="400px" /><rect fill="rgb(255,255,255)" height="40px" width="40px" x="280px" y="400px" /><rect fill="rgb(19,13,29)" height="40px" width="40px" x="320px" y="400px" /><rect fill="rgb(19,13,29)" height="40px" width="40px" x="360px" y="400px" /><rect fill="rgb(255,198,75)" height="40px" width="40px" x="400px" y="400px" /><rect fill="rgb(85,42,17)" height="40px" width="40px" x="440px" y="400px" /><rect fill="rgb(19,13,29)" height="40px" width="40px" x="40px" y="440px" /><rect fill="rgb(26,78,131)" height="40px" width="40px" x="80px" y="440px" /><rect fill="rgb(34,39,96)" height="40px" width="40px" x="120px" y="440px" /><rect fill="rgb(51,102,13)" height="40px" width="40px" x="160px" y="440px" /><rect fill="rgb(254,165,61)" height="40px" width="40px" x="200px" y="440px" /><rect fill="rgb(19,13,29)" height="40px" width="40px" x="240px" y="440px" /><rect fill="rgb(83,33,14)" height="40px" width="40px" x="280px" y="440px" /><rect fill="rgb(230,167,149)" height="40px" width="40px" x="320px" y="440px" /><rect fill="rgb(83,33,14)" height="40px" width="40px" x="360px" y="440px" /><rect fill="rgb(19,13,29)" height="40px" width="40px" x="400px" y="440px" /><rect fill="rgb(19,13,29)" height="40px" width="40px" x="440px" y="440px" /><rect fill="rgb(19,13,29)" height="40px" width="40px" x="80px" y="480px" /><rect fill="rgb(19,13,29)" height="40px" width="40px" x="120px" y="480px" /><rect fill="rgb(19,13,29)" height="40px" width="40px" x="160px" y="480px" /><rect fill="rgb(13,41,13)" height="40px" width="40px" x="200px" y="480px" /><rect fill="rgb(83,33,14)" height="40px" width="40px" x="240px" y="480px" /><rect fill="rgb(154,84,53)" height="40px" width="40px" x="280px" y="480px" /><rect fill="rgb(207,127,74)" height="40px" width="40px" x="320px" y="480px" /><rect fill="rgb(154,84,53)" height="40px" width="40px" x="360px" y="480px" /><rect fill="rgb(19,13,29)" height="40px" width="40px" x="400px" y="480px" /><rect fill="rgb(19,13,29)" height="40px" width="40px" x="240px" y="520px" /><rect fill="rgb(19,13,29)" height="40px" width="40px" x="280px" y="520px" /><rect fill="rgb(19,13,29)" height="40px" width="40px" x="320px" y="520px" /><rect fill="rgb(19,13,29)" height="40px" width="40px" x="360px" y="520px" /></svg>