<?xml version="1.0" encoding="utf-8" ?>
<svg baseProfile="full" height="640px" version="1.1" width="640px" xmlns="http://www.w3.org/2000/svg" xmlns:ev="http://www.w3.org/2001/xml-events" xmlns:xlink="http://www.w3.org/1999/xlink"><defs /><rect fill="rgb(19,13,29)" height="40px" width="40px" x="400px" y="80px" /><rect fill="rgb(196,135,58)" height="40px" width="40px" x="440px" y="80px" /><rect fill="rgb(19,13,29)" height="40px" width="40px" x="480px" y="80px" /><rect fill="rgb(19,13,29)" height="40px" width="40px" x="400px" y="120px" /><rect fill="rgb(196,135,58)" height="40px" width="40px" x="440px" y="120px" /><rect fill="rgb(19,13,29)" height="40px" width="40px" x="480px" y="120px" /><rect fill="rgb(19,13,29)" height="40px" width="40px" x="360px" y="160px" /><rect fill="rgb(196,135,58)" height="40px" width="40px" x="400px" y="160px" /><rect fill="rgb(19,13,29)" height="40px" width="40px" x="440px" y="160px" /><rect fill="rgb(19,13,29)" height="40px" width="40px" x="520px" y="160px" /><rect fill="rgb(19,13,29)" height="40px" width="40px" x="560px" y="160px" /><rect fill="rgb(19,13,29)" height="40px" width="40px" x="240px" y="200px" /><rect fill="rgb(19,13,29)" height="40px" width="40px" x="280px" y="200px" /><rect fill="rgb(19,13,29)" height="40px" width="40px" x="320px" y="200px" /><rect fill="rgb(19,13,29)" height="40px" width="40px" x="360px" y="200px" /><rect fill="rgb(196,135,58)" height="40px" width="40px" x="400px" y="200px" /><rect fill="rgb(19,13,29)" height="40px" width="40px" x="440px" y="200px" /><rect fill="rgb(19,13,29)" height="40px" width="40px" x="480px" y="200px" /><rect fill="rgb(196,135,58)" height="40px" width="40px" x="520px" y="200px" /><rect fill="rgb(196,135,58)" height="40px" width="40px" x="560px" y="200px" /><rect fill="rgb(19,13,29)" height="40px" width="40px" x="200px" y="240px" /><rect fill="rgb(159,52,52)" height="40px" width="40px" x="240px" y="240px" /><rect fill="rgb(159,52,52)" height="40px" width="40px" x="280px" y="240px" /><rect fill="rgb(50,19,7)" height="40px" width="40px" x="320px" y="240px" /><rect fill="rgb(127,29,29)" height="40px" width="40px" x="360px" y="240px" /><rect fill="rgb(19,13,29)" height="40px" width="40px" x="400px" y="240px" /><rect fill="rgb(127,29,29)" height="40px" width="40px" x="440px" y="240px" /><rect fill="rgb(196,135,58)" height="40px" width="40px" x="480px" y="240px" /><rect fill="rgb(19,13,29)" height="40px" width="40px" x="520px" y="240px" /><rect fill="rgb(19,13,29)" height="40px" width="40px" x="560px" y="240px" /><rect fill="rgb(19,13,29)" height="40px" width="40px" x="120px" y="280px" /><rect fill="rgb(19,13,29)" height="40px" width="40px" x="160px" y="280px" /><rect fill="rgb(185,80,63)" height="40px" width="40px" x="200px" y="280px" /><rect fill="rgb(159,52,52)" height="40px" width="40px" x="240px" y="280px" /><rect fill="rgb(127,29,29)" height="40px" width="40px" x="280px" y="280px" /><rect fill="rgb(159,52,52)" height="40px" width="40px" x="320px" y="280px" /><rect fill="rgb(50,19,7)" height="40px" width="40px" x="360px" y="280px" /><rect fill="rgb(181,186,182)" height="40px" width="40px" x="400px" y="280px" /><rect fill="rgb(19,13,29)" height="40px" width="40px" x="440px" y="280px" /><rect fill="rgb(19,13,29)" height="40px" width="40px" x="480px" y="280px" /><rect fill="rgb(19,13,29)" height="40px" width="40px" x="80px" y="320px" /><rect fill="rgb(159,52,52)" height="40px" width="40px" x="120px" y="320px" /><rect fill="rgb(185,80,63)" height="40px" width="40px" x="160px" y="320px" /><rect fill="rgb(185,80,63)" height="40px" width="40px" x="200px" y="320px" /><rect fill="rgb(127,29,29)" height="40px" width="40px" x="240px" y="320px" /><rect fill="rgb(185,80,63)" height="40px" width="40px" x="280px" y="320px" /><rect fill="rgb(185,80,63)" height="40px" width="40px" x="320px" y="320px" /><rect fill="rgb(217,220,218)" height="40px" width="40px" x="360px" y="320px" /><rect fill="rgb(254,254,255)" height="40px" width="40px" x="400px" y="320px" /><rect fill="rgb(97,106,99)" height="40px" width="40px" x="440px" y="320px" /><rect fill="rgb(127,29,29)" height="40px" width="40px" x="480px" y="320px" /><rect fill="rgb(50,19,7)" height="40px" width="40px" x="120px" y="360px" /><rect fill="rgb(159,52,52)" height="40px" width="40px" x="160px" y="360px" /><rect fill="rgb(185,80,63)" height="40px" width="40px" x="200px" y="360px" /><rect fill="rgb(50,19,7)" height="40px" width="40px" x="240px" y="360px" /><rect fill="rgb(159,52,52)" height="40px" width="40px" x="280px" y="360px" /><rect fill="rgb(50,19,7)" height="40px" width="40px" x="320px" y="360px" /><rect fill="rgb(134,77,52)" height="40px" width="40px" x="360px" y="360px" /><rect fill="rgb(97,106,99)" height="40px" width="40px" x="400px" y="360px" /><rect fill="rgb(50,19,7)" height="40px" width="40px" x="440px" y="360px" /><rect fill="rgb(159,52,52)" height="40px" width="40px" x="480px" y="360px" /><rect fill="rgb(19,13,29)" height="40px" width="40px" x="520px" y="360px" /><rect fill="rgb(19,13,29)" height="40px" width="40px" x="80px" y="400px" /><rect fill="rgb(159,52,52)" height="40px" width="40px" x="120px" y="400px" /><rect fill="rgb(127,29,29)" height="40px" width="40px" x="160px" y="400px" /><rect fill="rgb(127,29,29)" height="40px" width="40px" x="200px" y="400px" /><rect fill="rgb(50,19,7)" height="40px" width="40px" x="240px" y="400px" /><rect fill="rgb(74,39,18)" height="40px" width="40px" x="280px" y="400px" /><rect fill="rgb(230,167,149)" height="40px" width="40px" x="320px" y="400px" /><rect fill="rgb(207,127,74)" height="40px" width="40px" x="360px" y="400px" /><rect fill="rgb(50,19,7)" height="40px" width="40px" x="400px" y="400px" /><rect fill="rgb(159,52,52)" height="40px" width="40px" x="440px" y="400px" /><rect fill="rgb(19,13,29)" height="40px" width="40px" x="480px" y="400px" /><rect fill="rgb(19,13,29)" height="40px" width="40px" x="120px" y="440px" /><rect fill="rgb(159,52,52)" height="40px" width="40px" x="160px" y="440px" /><rect fill="rgb(50,19,7)" height="40px" width="40px" x="200px" y="440px" /><rect fill="rgb(50,19,7)" height="40px" width="40px" x="240px" y="440px" /><rect fill="rgb(19,13,29)" height="40px" width="40px" x="280px" y="440px" /><rect fill="rgb(230,167,149)" height="40px" width="40px" x="320px" y="440px" /><rect fill="rgb(19,13,29)" height="40px" width="40px" x="360px" y="440px" /><rect fill="rgb(134,77,52)" height="40px" width="40px" x="400px" y="440px" /><rect fill="rgb(19,13,29)" height="40px" width="40px" x="440px" y="440px" /><rect fill="rgb(19,13,29)" height="40px" width="40px" x="120px" y="480px" /><rect fill="rgb(181,186,182)" height="40px" width="40px" x="160px" y="480px" /><rect fill="rgb(127,29,29)" height="40px" width="40px" x="200px" y="480px" /><rect fill="rgb(19,13,29)" height="40px" width="40px" x="240px" y="480px" /><rect fill="rgb(207,127,74)" height="40px" width="40px" x="280px" y="480px" /><rect fill="rgb(230,167,149)" height="40px" width="40px" x="320px" y="480px" /><rect fill="rgb(207,127,74)" height="40px" width="40px" x="360px" y="480px" /><rect fill="rgb(19,13,29)" height="40px" width="40px" x="400px" y="480px" /><rect fill="rgb(127,29,29)" height="40px" width="40px" x="440px" y="480px" /><rect fill="rgb(19,13,29)" height="40px" width="40px" x="480px" y="480px" /><rect fill="rgb(19,13,29)" height="40px" width="40px" x="120px" y="520px" /><rect fill="rgb(98,26,131)" height="40px" width="40px" x="160px" y="520px" /><rect fill="rgb(159,52,52)" height="40px" width="40px" x="200px" y="520px" /><rect fill="rgb(19,13,29)" height="40px" width="40px" x="240px" y="520px" /><rect fill="rgb(181,186,182)" height="40px" width="40px" x="280px" y="520px" /><rect fill="rgb(19,13,29)" height="40px" width="40px" x="320px" y="520px" /><rect fill="rgb(19,13,29)" height="40px" width="40px" x="360px" y="520px" /><rect fill="rgb(98,26,131)" height="40px" width="40px" x="400px" y="520px" /><rect fill="rgb(159,52,52)" height="40px" width="40px" x="440px" y="520px" /><rect fill="rgb(19,13,29)" height="40px" width="40px" x="480px" y="520px" /><rect fill="rgb(97,106,99)" height="40px" width="40px" x="160px" y="560px" /><rect fill="rgb(50,19,7)" height="40px" width="40px" x="200px" y="560px" /><rect fill="rgb(159,52,52)" height="40px" width="40px" x="240px" y="560px" /><rect fill="rgb(98,26,131)" height="40px" width="40px" x="280px" y="560px" /><rect fill="rgb(217,220,218)" height="40px" width="40px" x="320px" y="560px" /><rect fill="rgb(158,58,187)" height="40px" width="40px" x="360px" y="560px" /><rect fill="rgb(181,186,182)" height="40px" width="40px" x="400px" y="560px" /><rect fill="rgb(19,13,29)" height="40px" width="40px" x="440px" y="560px" /><rect fill="rgb(127,29,29)" height="40px" width="40px" x="480px" y="560px" /><rect fill="rgb(19,13,29)" height="40px" width="40px" x="520px" y="560px" /><rect fill="rgb(127,29,29)" height="40px" width="40px" x="200px" y="600px" /><rect fill="rgb(19,13,29)" height="40px" width="40px" x="240px" y="600px" /><rect fill="rgb(127,29,29)" height="40px" width="40px" x="280px" y="600px" /></svg>