<?xml version="1.0" encoding="utf-8" ?>
<svg baseProfile="full" height="640px" version="1.1" width="640px" xmlns="http://www.w3.org/2000/svg" xmlns:ev="http://www.w3.org/2001/xml-events" xmlns:xlink="http://www.w3.org/1999/xlink"><defs /><rect fill="rgb(17,48,29)" height="40px" width="40px" x="200px" y="280px" /><rect fill="rgb(19,13,29)" height="40px" width="40px" x="240px" y="280px" /><rect fill="rgb(19,13,29)" height="40px" width="40px" x="280px" y="280px" /><rect fill="rgb(17,48,29)" height="40px" width="40px" x="320px" y="280px" /><rect fill="rgb(17,48,29)" height="40px" width="40px" x="360px" y="280px" /><rect fill="rgb(19,13,29)" height="40px" width="40px" x="160px" y="320px" /><rect fill="rgb(17,48,29)" height="40px" width="40px" x="200px" y="320px" /><rect fill="rgb(85,92,56)" height="40px" width="40px" x="240px" y="320px" /><rect fill="rgb(182,148,107)" height="40px" width="40px" x="280px" y="320px" /><rect fill="rgb(182,148,107)" height="40px" width="40px" x="320px" y="320px" /><rect fill="rgb(85,92,56)" height="40px" width="40px" x="360px" y="320px" /><rect fill="rgb(17,48,29)" height="40px" width="40px" x="400px" y="320px" /><rect fill="rgb(19,13,29)" height="40px" width="40px" x="160px" y="360px" /><rect fill="rgb(85,92,56)" height="40px" width="40px" x="200px" y="360px" /><rect fill="rgb(139,104,73)" height="40px" width="40px" x="240px" y="360px" /><rect fill="rgb(139,104,73)" height="40px" width="40px" x="280px" y="360px" /><rect fill="rgb(139,104,73)" height="40px" width="40px" x="320px" y="360px" /><rect fill="rgb(196,207,161)" height="40px" width="40px" x="360px" y="360px" /><rect fill="rgb(19,13,29)" height="40px" width="40px" x="400px" y="360px" /><rect fill="rgb(19,13,29)" height="40px" width="40px" x="160px" y="400px" /><rect fill="rgb(139,104,73)" height="40px" width="40px" x="200px" y="400px" /><rect fill="rgb(85,92,56)" height="40px" width="40px" x="240px" y="400px" /><rect fill="rgb(255,255,255)" height="40px" width="40px" x="280px" y="400px" /><rect fill="rgb(139,104,73)" height="40px" width="40px" x="320px" y="400px" /><rect fill="rgb(85,92,56)" height="40px" width="40px" x="360px" y="400px" /><rect fill="rgb(19,13,29)" height="40px" width="40px" x="400px" y="400px" /><rect fill="rgb(19,13,29)" height="40px" width="40px" x="160px" y="440px" /><rect fill="rgb(17,48,29)" height="40px" width="40px" x="200px" y="440px" /><rect fill="rgb(50,73,44)" height="40px" width="40px" x="240px" y="440px" /><rect fill="rgb(85,42,17)" height="40px" width="40px" x="280px" y="440px" /><rect fill="rgb(126,0,0)" height="40px" width="40px" x="320px" y="440px" /><rect fill="rgb(126,0,0)" height="40px" width="40px" x="360px" y="440px" /><rect fill="rgb(17,48,29)" height="40px" width="40px" x="400px" y="440px" /><rect fill="rgb(19,13,29)" height="40px" width="40px" x="200px" y="480px" /><rect fill="rgb(50,73,44)" height="40px" width="40px" x="240px" y="480px" /><rect fill="rgb(85,42,17)" height="40px" width="40px" x="280px" y="480px" /><rect fill="rgb(139,104,73)" height="40px" width="40px" x="320px" y="480px" /><rect fill="rgb(85,92,56)" height="40px" width="40px" x="360px" y="480px" /><rect fill="rgb(19,13,29)" height="40px" width="40px" x="400px" y="480px" /><rect fill="rgb(19,13,29)" height="40px" width="40px" x="240px" y="520px" /><rect fill="rgb(17,48,29)" height="40px" width="40px" x="280px" y="520px" /><rect fill="rgb(17,48,29)" height="40px" width="40px" x="320px" y="520px" /><rect fill="rgb(17,48,29)" height="40px" width="40px" x="360px" y="520px" /></svg>