<?xml version="1.0" encoding="utf-8" ?>
<svg baseProfile="full" height="640px" version="1.1" width="640px" xmlns="http://www.w3.org/2000/svg" xmlns:ev="http://www.w3.org/2001/xml-events" xmlns:xlink="http://www.w3.org/1999/xlink"><defs /><rect fill="rgb(19,13,29)" height="40px" width="40px" x="120px" y="200px" /><rect fill="rgb(19,13,29)" height="40px" width="40px" x="160px" y="200px" /><rect fill="rgb(19,13,29)" height="40px" width="40px" x="360px" y="200px" /><rect fill="rgb(19,13,29)" height="40px" width="40px" x="400px" y="200px" /><rect fill="rgb(19,13,29)" height="40px" width="40px" x="120px" y="240px" /><rect fill="rgb(29,133,171)" height="40px" width="40px" x="160px" y="240px" /><rect fill="rgb(34,39,96)" height="40px" width="40px" x="200px" y="240px" /><rect fill="rgb(19,13,29)" height="40px" width="40px" x="240px" y="240px" /><rect fill="rgb(19,13,29)" height="40px" width="40px" x="280px" y="240px" /><rect fill="rgb(19,13,29)" height="40px" width="40px" x="320px" y="240px" /><rect fill="rgb(26,78,131)" height="40px" width="40px" x="360px" y="240px" /><rect fill="rgb(19,13,29)" height="40px" width="40px" x="400px" y="240px" /><rect fill="rgb(19,13,29)" height="40px" width="40px" x="440px" y="240px" /><rect fill="rgb(19,13,29)" height="40px" width="40px" x="80px" y="280px" /><rect fill="rgb(44,175,222)" height="40px" width="40px" x="120px" y="280px" /><rect fill="rgb(44,175,222)" height="40px" width="40px" x="160px" y="280px" /><rect fill="rgb(29,133,171)" height="40px" width="40px" x="200px" y="280px" /><rect fill="rgb(26,78,131)" height="40px" width="40px" x="240px" y="280px" /><rect fill="rgb(148,94,117)" height="40px" width="40px" x="280px" y="280px" /><rect fill="rgb(194,121,138)" height="40px" width="40px" x="320px" y="280px" /><rect fill="rgb(148,94,117)" height="40px" width="40px" x="360px" y="280px" /><rect fill="rgb(84,52,89)" height="40px" width="40px" x="400px" y="280px" /><rect fill="rgb(26,78,131)" height="40px" width="40px" x="440px" y="280px" /><rect fill="rgb(19,13,29)" height="40px" width="40px" x="480px" y="280px" /><rect fill="rgb(19,13,29)" height="40px" width="40px" x="80px" y="320px" /><rect fill="rgb(148,94,117)" height="40px" width="40px" x="120px" y="320px" /><rect fill="rgb(148,94,117)" height="40px" width="40px" x="160px" y="320px" /><rect fill="rgb(29,133,171)" height="40px" width="40px" x="200px" y="320px" /><rect fill="rgb(148,94,117)" height="40px" width="40px" x="240px" y="320px" /><rect fill="rgb(225,188,197)" height="40px" width="40px" x="280px" y="320px" /><rect fill="rgb(194,121,138)" height="40px" width="40px" x="320px" y="320px" /><rect fill="rgb(225,188,197)" height="40px" width="40px" x="360px" y="320px" /><rect fill="rgb(148,94,117)" height="40px" width="40px" x="400px" y="320px" /><rect fill="rgb(148,94,117)" height="40px" width="40px" x="440px" y="320px" /><rect fill="rgb(19,13,29)" height="40px" width="40px" x="480px" y="320px" /><rect fill="rgb(19,13,29)" height="40px" width="40px" x="40px" y="360px" /><rect fill="rgb(84,52,89)" height="40px" width="40px" x="80px" y="360px" /><rect fill="rgb(225,188,197)" height="40px" width="40px" x="120px" y="360px" /><rect fill="rgb(239,148,159)" height="40px" width="40px" x="160px" y="360px" /><rect fill="rgb(194,121,138)" height="40px" width="40px" x="200px" y="360px" /><rect fill="rgb(148,94,117)" height="40px" width="40px" x="240px" y="360px" /><rect fill="rgb(239,148,159)" height="40px" width="40px" x="280px" y="360px" /><rect fill="rgb(84,52,89)" height="40px" width="40px" x="320px" y="360px" /><rect fill="rgb(148,94,117)" height="40px" width="40px" x="360px" y="360px" /><rect fill="rgb(84,52,89)" height="40px" width="40px" x="400px" y="360px" /><rect fill="rgb(194,121,138)" height="40px" width="40px" x="440px" y="360px" /><rect fill="rgb(148,94,117)" height="40px" width="40px" x="480px" y="360px" /><rect fill="rgb(19,13,29)" height="40px" width="40px" x="520px" y="360px" /><rect fill="rgb(19,13,29)" height="40px" width="40px" x="40px" y="400px" /><rect fill="rgb(239,148,159)" height="40px" width="40px" x="80px" y="400px" /><rect fill="rgb(239,148,159)" height="40px" width="40px" x="120px" y="400px" /><rect fill="rgb(148,94,117)" height="40px" width="40px" x="160px" y="400px" /><rect fill="rgb(84,52,89)" height="40px" width="40px" x="200px" y="400px" /><rect fill="rgb(84,52,89)" height="40px" width="40px" x="240px" y="400px" /><rect fill="rgb(154,84,53)" height="40px" width="40px" x="280px" y="400px" /><rect fill="rgb(230,167,149)" height="40px" width="40px" x="320px" y="400px" /><rect fill="rgb(207,127,74)" height="40px" width="40px" x="360px" y="400px" /><rect fill="rgb(148,94,117)" height="40px" width="40px" x="400px" y="400px" /><rect fill="rgb(84,52,89)" height="40px" width="40px" x="440px" y="400px" /><rect fill="rgb(19,13,29)" height="40px" width="40px" x="480px" y="400px" /><rect fill="rgb(19,13,29)" height="40px" width="40px" x="520px" y="400px" /><rect fill="rgb(19,13,29)" height="40px" width="40px" x="80px" y="440px" /><rect fill="rgb(84,52,89)" height="40px" width="40px" x="120px" y="440px" /><rect fill="rgb(194,121,138)" height="40px" width="40px" x="160px" y="440px" /><rect fill="rgb(19,13,29)" height="40px" width="40px" x="200px" y="440px" /><rect fill="rgb(154,84,53)" height="40px" width="40px" x="240px" y="440px" /><rect fill="rgb(19,13,29)" height="40px" width="40px" x="280px" y="440px" /><rect fill="rgb(230,167,149)" height="40px" width="40px" x="320px" y="440px" /><rect fill="rgb(19,13,29)" height="40px" width="40px" x="360px" y="440px" /><rect fill="rgb(148,94,117)" height="40px" width="40px" x="400px" y="440px" /><rect fill="rgb(194,121,138)" height="40px" width="40px" x="440px" y="440px" /><rect fill="rgb(148,94,117)" height="40px" width="40px" x="480px" y="440px" /><rect fill="rgb(19,13,29)" height="40px" width="40px" x="520px" y="440px" /><rect fill="rgb(19,13,29)" height="40px" width="40px" x="40px" y="480px" /><rect fill="rgb(148,94,117)" height="40px" width="40px" x="80px" y="480px" /><rect fill="rgb(239,148,159)" height="40px" width="40px" x="120px" y="480px" /><rect fill="rgb(84,52,89)" height="40px" width="40px" x="160px" y="480px" /><rect fill="rgb(19,13,29)" height="40px" width="40px" x="200px" y="480px" /><rect fill="rgb(154,84,53)" height="40px" width="40px" x="240px" y="480px" /><rect fill="rgb(207,127,74)" height="40px" width="40px" x="280px" y="480px" /><rect fill="rgb(207,127,74)" height="40px" width="40px" x="320px" y="480px" /><rect fill="rgb(154,84,53)" height="40px" width="40px" x="360px" y="480px" /><rect fill="rgb(148,94,117)" height="40px" width="40px" x="400px" y="480px" /><rect fill="rgb(84,52,89)" height="40px" width="40px" x="440px" y="480px" /><rect fill="rgb(84,52,89)" height="40px" width="40px" x="480px" y="480px" /><rect fill="rgb(19,13,29)" height="40px" width="40px" x="80px" y="520px" /><rect fill="rgb(19,13,29)" height="40px" width="40px" x="120px" y="520px" /><rect fill="rgb(148,94,117)" height="40px" width="40px" x="160px" y="520px" /><rect fill="rgb(26,78,131)" height="40px" width="40px" x="200px" y="520px" /><rect fill="rgb(44,175,222)" height="40px" width="40px" x="240px" y="520px" /><rect fill="rgb(26,78,131)" height="40px" width="40px" x="280px" y="520px" /><rect fill="rgb(34,39,96)" height="40px" width="40px" x="320px" y="520px" /><rect fill="rgb(26,78,131)" height="40px" width="40px" x="360px" y="520px" /><rect fill="rgb(29,133,171)" height="40px" width="40px" x="400px" y="520px" /><rect fill="rgb(148,94,117)" height="40px" width="40px" x="440px" y="520px" /><rect fill="rgb(19,13,29)" height="40px" width="40px" x="480px" y="520px" /><rect fill="rgb(84,52,89)" height="40px" width="40px" x="80px" y="560px" /><rect fill="rgb(148,94,117)" height="40px" width="40px" x="120px" y="560px" /><rect fill="rgb(19,13,29)" height="40px" width="40px" x="160px" y="560px" /><rect fill="rgb(34,39,96)" height="40px" width="40px" x="200px" y="560px" /><rect fill="rgb(26,78,131)" height="40px" width="40px" x="240px" y="560px" /><rect fill="rgb(29,133,171)" height="40px" width="40px" x="280px" y="560px" /><rect fill="rgb(19,13,29)" height="40px" width="40px" x="320px" y="560px" /><rect fill="rgb(29,133,171)" height="40px" width="40px" x="360px" y="560px" /><rect fill="rgb(19,13,29)" height="40px" width="40px" x="400px" y="560px" /><rect fill="rgb(84,52,89)" height="40px" width="40px" x="440px" y="560px" /><rect fill="rgb(19,13,29)" height="40px" width="40px" x="480px" y="560px" /></svg>