<?xml version="1.0" encoding="utf-8" ?>
<svg baseProfile="full" height="640px" version="1.1" width="640px" xmlns="http://www.w3.org/2000/svg" xmlns:ev="http://www.w3.org/2001/xml-events" xmlns:xlink="http://www.w3.org/1999/xlink"><defs /><rect fill="rgb(19,13,29)" height="40px" width="40px" x="240px" y="280px" /><rect fill="rgb(19,13,29)" height="40px" width="40px" x="280px" y="280px" /><rect fill="rgb(19,13,29)" height="40px" width="40px" x="320px" y="280px" /><rect fill="rgb(19,13,29)" height="40px" width="40px" x="360px" y="280px" /><rect fill="rgb(19,13,29)" height="40px" width="40px" x="200px" y="320px" /><rect fill="rgb(208,184,100)" height="40px" width="40px" x="240px" y="320px" /><rect fill="rgb(196,135,58)" height="40px" width="40px" x="280px" y="320px" /><rect fill="rgb(151,167,146)" height="40px" width="40px" x="320px" y="320px" /><rect fill="rgb(151,167,146)" height="40px" width="40px" x="360px" y="320px" /><rect fill="rgb(19,13,29)" height="40px" width="40px" x="400px" y="320px" /><rect fill="rgb(19,13,29)" height="40px" width="40px" x="200px" y="360px" /><rect fill="rgb(196,135,58)" height="40px" width="40px" x="240px" y="360px" /><rect fill="rgb(255,221,156)" height="40px" width="40px" x="280px" y="360px" /><rect fill="rgb(255,221,156)" height="40px" width="40px" x="320px" y="360px" /><rect fill="rgb(208,184,100)" height="40px" width="40px" x="360px" y="360px" /><rect fill="rgb(19,13,29)" height="40px" width="40px" x="400px" y="360px" /><rect fill="rgb(19,13,29)" height="40px" width="40px" x="200px" y="400px" /><rect fill="rgb(196,135,58)" height="40px" width="40px" x="240px" y="400px" /><rect fill="rgb(19,13,29)" height="40px" width="40px" x="280px" y="400px" /><rect fill="rgb(255,221,156)" height="40px" width="40px" x="320px" y="400px" /><rect fill="rgb(19,13,29)" height="40px" width="40px" x="360px" y="400px" /><rect fill="rgb(19,13,29)" height="40px" width="40px" x="400px" y="400px" /><rect fill="rgb(19,13,29)" height="40px" width="40px" x="200px" y="440px" /><rect fill="rgb(85,42,17)" height="40px" width="40px" x="240px" y="440px" /><rect fill="rgb(148,27,27)" height="40px" width="40px" x="280px" y="440px" /><rect fill="rgb(148,27,27)" height="40px" width="40px" x="320px" y="440px" /><rect fill="rgb(85,42,17)" height="40px" width="40px" x="360px" y="440px" /><rect fill="rgb(19,13,29)" height="40px" width="40px" x="400px" y="440px" /><rect fill="rgb(19,13,29)" height="40px" width="40px" x="240px" y="480px" /><rect fill="rgb(196,135,58)" height="40px" width="40px" x="280px" y="480px" /><rect fill="rgb(196,135,58)" height="40px" width="40px" x="320px" y="480px" /><rect fill="rgb(19,13,29)" height="40px" width="40px" x="360px" y="480px" /><rect fill="rgb(19,13,29)" height="40px" width="40px" x="280px" y="520px" /><rect fill="rgb(19,13,29)" height="40px" width="40px" x="320px" y="520px" /><rect fill="rgb(19,13,29)" height="40px" width="40px" x="360px" y="520px" /></svg>